<svg xmlns="http://www.w3.org/2000/svg" width="1390" height="640">
<rect width="100%" height="100%" fill="white"/>
<text x="695.0" y="28" text-anchor="middle" font-family="sans-serif" font-size="20">Plot 2 - Window Breakdown (Stacked Bar) (Tenstorrent)</text>
<text x="695.0" y="46" text-anchor="middle" font-family="sans-serif" font-size="12">Stacked categories: resident compute, idle, memory-attributed, non-resident (time in us)</text>
<line x1="90" y1="518" x2="1070" y2="518" stroke="#222"/>
<line x1="90" y1="72" x2="90" y2="518" stroke="#222"/>
<line x1="90" y1="518.00" x2="1070" y2="518.00" stroke="#ededed"/>
<line x1="84" y1="518.00" x2="90" y2="518.00" stroke="#222"/>
<text x="80" y="522.00" text-anchor="end" font-family="sans-serif" font-size="11">0.0</text>
<line x1="90" y1="428.80" x2="1070" y2="428.80" stroke="#ededed"/>
<line x1="84" y1="428.80" x2="90" y2="428.80" stroke="#222"/>
<text x="80" y="432.80" text-anchor="end" font-family="sans-serif" font-size="11">1.6</text>
<line x1="90" y1="339.60" x2="1070" y2="339.60" stroke="#ededed"/>
<line x1="84" y1="339.60" x2="90" y2="339.60" stroke="#222"/>
<text x="80" y="343.60" text-anchor="end" font-family="sans-serif" font-size="11">3.2</text>
<line x1="90" y1="250.40" x2="1070" y2="250.40" stroke="#ededed"/>
<line x1="84" y1="250.40" x2="90" y2="250.40" stroke="#222"/>
<text x="80" y="254.40" text-anchor="end" font-family="sans-serif" font-size="11">4.8</text>
<line x1="90" y1="161.20" x2="1070" y2="161.20" stroke="#ededed"/>
<line x1="84" y1="161.20" x2="90" y2="161.20" stroke="#222"/>
<text x="80" y="165.20" text-anchor="end" font-family="sans-serif" font-size="11">6.4</text>
<line x1="90" y1="72.00" x2="1070" y2="72.00" stroke="#ededed"/>
<line x1="84" y1="72.00" x2="90" y2="72.00" stroke="#222"/>
<text x="80" y="76.00" text-anchor="end" font-family="sans-serif" font-size="11">8.0</text>
<line x1="90.60" y1="518" x2="90.60" y2="524" stroke="#222"/>
<text x="90.60" y="542" text-anchor="middle" font-family="sans-serif" font-size="11">0</text>
<line x1="91.80" y1="518" x2="91.80" y2="524" stroke="#222"/>
<text x="91.80" y="542" text-anchor="middle" font-family="sans-serif" font-size="11">1</text>
<line x1="93.00" y1="518" x2="93.00" y2="524" stroke="#222"/>
<text x="93.00" y="542" text-anchor="middle" font-family="sans-serif" font-size="11">2</text>
<line x1="94.20" y1="518" x2="94.20" y2="524" stroke="#222"/>
<text x="94.20" y="542" text-anchor="middle" font-family="sans-serif" font-size="11">3</text>
<line x1="95.40" y1="518" x2="95.40" y2="524" stroke="#222"/>
<text x="95.40" y="542" text-anchor="middle" font-family="sans-serif" font-size="11">4</text>
<line x1="97.80" y1="518" x2="97.80" y2="524" stroke="#222"/>
<text x="97.80" y="542" text-anchor="middle" font-family="sans-serif" font-size="11">6</text>
<line x1="99.00" y1="518" x2="99.00" y2="524" stroke="#222"/>
<text x="99.00" y="542" text-anchor="middle" font-family="sans-serif" font-size="11">7</text>
<line x1="100.20" y1="518" x2="100.20" y2="524" stroke="#222"/>
<text x="100.20" y="542" text-anchor="middle" font-family="sans-serif" font-size="11">8</text>
<line x1="101.40" y1="518" x2="101.40" y2="524" stroke="#222"/>
<text x="101.40" y="542" text-anchor="middle" font-family="sans-serif" font-size="11">9</text>
<rect x="90.08" y="90.73" width="1.03" height="427.27" fill="#2ca02c" />
<rect x="90.08" y="72.00" width="1.03" height="18.73" fill="#d62728" />
<rect x="91.28" y="97.59" width="1.03" height="420.41" fill="#2ca02c" />
<rect x="91.28" y="72.00" width="1.03" height="25.59" fill="#d62728" />
<rect x="92.48" y="93.74" width="1.03" height="424.26" fill="#2ca02c" />
<rect x="92.48" y="72.00" width="1.03" height="21.74" fill="#d62728" />
<rect x="93.68" y="97.37" width="1.03" height="420.63" fill="#2ca02c" />
<rect x="93.68" y="72.00" width="1.03" height="25.37" fill="#d62728" />
<rect x="94.88" y="93.85" width="1.03" height="424.15" fill="#2ca02c" />
<rect x="94.88" y="72.00" width="1.03" height="21.85" fill="#d62728" />
<rect x="96.08" y="97.48" width="1.03" height="420.52" fill="#2ca02c" />
<rect x="96.08" y="72.00" width="1.03" height="25.48" fill="#d62728" />
<rect x="97.28" y="93.97" width="1.03" height="424.03" fill="#2ca02c" />
<rect x="97.28" y="72.00" width="1.03" height="21.97" fill="#d62728" />
<rect x="98.48" y="97.53" width="1.03" height="420.47" fill="#2ca02c" />
<rect x="98.48" y="72.00" width="1.03" height="25.53" fill="#d62728" />
<rect x="99.68" y="93.97" width="1.03" height="424.03" fill="#2ca02c" />
<rect x="99.68" y="72.00" width="1.03" height="21.97" fill="#d62728" />
<rect x="100.88" y="97.76" width="1.03" height="420.24" fill="#2ca02c" />
<rect x="100.88" y="74.79" width="1.03" height="22.97" fill="#d62728" />
<rect x="100.88" y="72.00" width="1.03" height="2.79" fill="#7f7f7f" />
<rect x="1096" y="98" width="18" height="12" fill="#2ca02c" />
<text x="1122" y="108" font-family="sans-serif" font-size="12">resident compute</text>
<rect x="1096" y="122" width="18" height="12" fill="#f2b701" />
<text x="1122" y="132" font-family="sans-serif" font-size="12">idle</text>
<rect x="1096" y="146" width="18" height="12" fill="#d62728" />
<text x="1122" y="156" font-family="sans-serif" font-size="12">memory-attributed</text>
<rect x="1096" y="170" width="18" height="12" fill="#7f7f7f" />
<text x="1122" y="180" font-family="sans-serif" font-size="12">non-resident</text>
<text x="580.0" y="606" text-anchor="middle" font-family="sans-serif" font-size="13">Window index</text>
<text x="24" y="295.0" transform="rotate(-90 24 295.0)" text-anchor="middle" font-family="sans-serif" font-size="13">Time (us)</text>
</svg>