<svg xmlns="http://www.w3.org/2000/svg" width="472" height="1100">
<rect width="100%" height="100%" fill="white"/>
<text x="236.0" y="28" text-anchor="middle" font-family="sans-serif" font-size="20">Residency Fraction Heatmap</text>
<text x="236.0" y="48" text-anchor="middle" font-family="sans-serif" font-size="12">tt_vecadd | Tenstorrent</text>
<text x="236.0" y="64" text-anchor="middle" font-family="sans-serif" font-size="11">Fraction of each window covered by residency</text>
<rect x="92" y="84" width="220" height="896" fill="white" stroke="#222"/>
<line x1="92" y1="100" x2="312" y2="100" stroke="#f1f1f1"/>
<text x="82" y="96.0" text-anchor="end" font-family="sans-serif" font-size="11">core 0</text>
<line x1="92" y1="116" x2="312" y2="116" stroke="#f1f1f1"/>
<text x="82" y="112.0" text-anchor="end" font-family="sans-serif" font-size="11">core 1</text>
<line x1="92" y1="132" x2="312" y2="132" stroke="#f1f1f1"/>
<text x="82" y="128.0" text-anchor="end" font-family="sans-serif" font-size="11">core 2</text>
<line x1="92" y1="148" x2="312" y2="148" stroke="#f1f1f1"/>
<text x="82" y="144.0" text-anchor="end" font-family="sans-serif" font-size="11">core 3</text>
<line x1="92" y1="164" x2="312" y2="164" stroke="#f1f1f1"/>
<text x="82" y="160.0" text-anchor="end" font-family="sans-serif" font-size="11">core 4</text>
<line x1="92" y1="180" x2="312" y2="180" stroke="#f1f1f1"/>
<text x="82" y="176.0" text-anchor="end" font-family="sans-serif" font-size="11">core 5</text>
<line x1="92" y1="196" x2="312" y2="196" stroke="#f1f1f1"/>
<text x="82" y="192.0" text-anchor="end" font-family="sans-serif" font-size="11">core 6</text>
<line x1="92" y1="212" x2="312" y2="212" stroke="#f1f1f1"/>
<text x="82" y="208.0" text-anchor="end" font-family="sans-serif" font-size="11">core 7</text>
<line x1="92" y1="228" x2="312" y2="228" stroke="#f1f1f1"/>
<text x="82" y="224.0" text-anchor="end" font-family="sans-serif" font-size="11">core 8</text>
<line x1="92" y1="244" x2="312" y2="244" stroke="#f1f1f1"/>
<text x="82" y="240.0" text-anchor="end" font-family="sans-serif" font-size="11">core 9</text>
<line x1="92" y1="260" x2="312" y2="260" stroke="#f1f1f1"/>
<text x="82" y="256.0" text-anchor="end" font-family="sans-serif" font-size="11">core 10</text>
<line x1="92" y1="276" x2="312" y2="276" stroke="#f1f1f1"/>
<text x="82" y="272.0" text-anchor="end" font-family="sans-serif" font-size="11">core 11</text>
<line x1="92" y1="292" x2="312" y2="292" stroke="#f1f1f1"/>
<text x="82" y="288.0" text-anchor="end" font-family="sans-serif" font-size="11">core 12</text>
<line x1="92" y1="308" x2="312" y2="308" stroke="#f1f1f1"/>
<text x="82" y="304.0" text-anchor="end" font-family="sans-serif" font-size="11">core 13</text>
<line x1="92" y1="324" x2="312" y2="324" stroke="#f1f1f1"/>
<text x="82" y="320.0" text-anchor="end" font-family="sans-serif" font-size="11">core 14</text>
<line x1="92" y1="340" x2="312" y2="340" stroke="#f1f1f1"/>
<text x="82" y="336.0" text-anchor="end" font-family="sans-serif" font-size="11">core 15</text>
<line x1="92" y1="356" x2="312" y2="356" stroke="#f1f1f1"/>
<text x="82" y="352.0" text-anchor="end" font-family="sans-serif" font-size="11">core 16</text>
<line x1="92" y1="372" x2="312" y2="372" stroke="#f1f1f1"/>
<text x="82" y="368.0" text-anchor="end" font-family="sans-serif" font-size="11">core 17</text>
<line x1="92" y1="388" x2="312" y2="388" stroke="#f1f1f1"/>
<text x="82" y="384.0" text-anchor="end" font-family="sans-serif" font-size="11">core 18</text>
<line x1="92" y1="404" x2="312" y2="404" stroke="#f1f1f1"/>
<text x="82" y="400.0" text-anchor="end" font-family="sans-serif" font-size="11">core 19</text>
<line x1="92" y1="420" x2="312" y2="420" stroke="#f1f1f1"/>
<text x="82" y="416.0" text-anchor="end" font-family="sans-serif" font-size="11">core 20</text>
<line x1="92" y1="436" x2="312" y2="436" stroke="#f1f1f1"/>
<text x="82" y="432.0" text-anchor="end" font-family="sans-serif" font-size="11">core 21</text>
<line x1="92" y1="452" x2="312" y2="452" stroke="#f1f1f1"/>
<text x="82" y="448.0" text-anchor="end" font-family="sans-serif" font-size="11">core 22</text>
<line x1="92" y1="468" x2="312" y2="468" stroke="#f1f1f1"/>
<text x="82" y="464.0" text-anchor="end" font-family="sans-serif" font-size="11">core 23</text>
<line x1="92" y1="484" x2="312" y2="484" stroke="#f1f1f1"/>
<text x="82" y="480.0" text-anchor="end" font-family="sans-serif" font-size="11">core 24</text>
<line x1="92" y1="500" x2="312" y2="500" stroke="#f1f1f1"/>
<text x="82" y="496.0" text-anchor="end" font-family="sans-serif" font-size="11">core 25</text>
<line x1="92" y1="516" x2="312" y2="516" stroke="#f1f1f1"/>
<text x="82" y="512.0" text-anchor="end" font-family="sans-serif" font-size="11">core 26</text>
<line x1="92" y1="532" x2="312" y2="532" stroke="#f1f1f1"/>
<text x="82" y="528.0" text-anchor="end" font-family="sans-serif" font-size="11">core 27</text>
<line x1="92" y1="548" x2="312" y2="548" stroke="#f1f1f1"/>
<text x="82" y="544.0" text-anchor="end" font-family="sans-serif" font-size="11">core 28</text>
<line x1="92" y1="564" x2="312" y2="564" stroke="#f1f1f1"/>
<text x="82" y="560.0" text-anchor="end" font-family="sans-serif" font-size="11">core 29</text>
<line x1="92" y1="580" x2="312" y2="580" stroke="#f1f1f1"/>
<text x="82" y="576.0" text-anchor="end" font-family="sans-serif" font-size="11">core 30</text>
<line x1="92" y1="596" x2="312" y2="596" stroke="#f1f1f1"/>
<text x="82" y="592.0" text-anchor="end" font-family="sans-serif" font-size="11">core 31</text>
<line x1="92" y1="612" x2="312" y2="612" stroke="#f1f1f1"/>
<text x="82" y="608.0" text-anchor="end" font-family="sans-serif" font-size="11">core 32</text>
<line x1="92" y1="628" x2="312" y2="628" stroke="#f1f1f1"/>
<text x="82" y="624.0" text-anchor="end" font-family="sans-serif" font-size="11">core 33</text>
<line x1="92" y1="644" x2="312" y2="644" stroke="#f1f1f1"/>
<text x="82" y="640.0" text-anchor="end" font-family="sans-serif" font-size="11">core 34</text>
<line x1="92" y1="660" x2="312" y2="660" stroke="#f1f1f1"/>
<text x="82" y="656.0" text-anchor="end" font-family="sans-serif" font-size="11">core 35</text>
<line x1="92" y1="676" x2="312" y2="676" stroke="#f1f1f1"/>
<text x="82" y="672.0" text-anchor="end" font-family="sans-serif" font-size="11">core 36</text>
<line x1="92" y1="692" x2="312" y2="692" stroke="#f1f1f1"/>
<text x="82" y="688.0" text-anchor="end" font-family="sans-serif" font-size="11">core 37</text>
<line x1="92" y1="708" x2="312" y2="708" stroke="#f1f1f1"/>
<text x="82" y="704.0" text-anchor="end" font-family="sans-serif" font-size="11">core 38</text>
<line x1="92" y1="724" x2="312" y2="724" stroke="#f1f1f1"/>
<text x="82" y="720.0" text-anchor="end" font-family="sans-serif" font-size="11">core 39</text>
<line x1="92" y1="740" x2="312" y2="740" stroke="#f1f1f1"/>
<text x="82" y="736.0" text-anchor="end" font-family="sans-serif" font-size="11">core 40</text>
<line x1="92" y1="756" x2="312" y2="756" stroke="#f1f1f1"/>
<text x="82" y="752.0" text-anchor="end" font-family="sans-serif" font-size="11">core 41</text>
<line x1="92" y1="772" x2="312" y2="772" stroke="#f1f1f1"/>
<text x="82" y="768.0" text-anchor="end" font-family="sans-serif" font-size="11">core 42</text>
<line x1="92" y1="788" x2="312" y2="788" stroke="#f1f1f1"/>
<text x="82" y="784.0" text-anchor="end" font-family="sans-serif" font-size="11">core 43</text>
<line x1="92" y1="804" x2="312" y2="804" stroke="#f1f1f1"/>
<text x="82" y="800.0" text-anchor="end" font-family="sans-serif" font-size="11">core 44</text>
<line x1="92" y1="820" x2="312" y2="820" stroke="#f1f1f1"/>
<text x="82" y="816.0" text-anchor="end" font-family="sans-serif" font-size="11">core 45</text>
<line x1="92" y1="836" x2="312" y2="836" stroke="#f1f1f1"/>
<text x="82" y="832.0" text-anchor="end" font-family="sans-serif" font-size="11">core 46</text>
<line x1="92" y1="852" x2="312" y2="852" stroke="#f1f1f1"/>
<text x="82" y="848.0" text-anchor="end" font-family="sans-serif" font-size="11">core 47</text>
<line x1="92" y1="868" x2="312" y2="868" stroke="#f1f1f1"/>
<text x="82" y="864.0" text-anchor="end" font-family="sans-serif" font-size="11">core 48</text>
<line x1="92" y1="884" x2="312" y2="884" stroke="#f1f1f1"/>
<text x="82" y="880.0" text-anchor="end" font-family="sans-serif" font-size="11">core 49</text>
<line x1="92" y1="900" x2="312" y2="900" stroke="#f1f1f1"/>
<text x="82" y="896.0" text-anchor="end" font-family="sans-serif" font-size="11">core 50</text>
<line x1="92" y1="916" x2="312" y2="916" stroke="#f1f1f1"/>
<text x="82" y="912.0" text-anchor="end" font-family="sans-serif" font-size="11">core 51</text>
<line x1="92" y1="932" x2="312" y2="932" stroke="#f1f1f1"/>
<text x="82" y="928.0" text-anchor="end" font-family="sans-serif" font-size="11">core 52</text>
<line x1="92" y1="948" x2="312" y2="948" stroke="#f1f1f1"/>
<text x="82" y="944.0" text-anchor="end" font-family="sans-serif" font-size="11">core 53</text>
<line x1="92" y1="964" x2="312" y2="964" stroke="#f1f1f1"/>
<text x="82" y="960.0" text-anchor="end" font-family="sans-serif" font-size="11">core 54</text>
<text x="82" y="976.0" text-anchor="end" font-family="sans-serif" font-size="11">core 55</text>
<text x="100.0" y="998.0" text-anchor="middle" font-family="sans-serif" font-size="10" transform="rotate(25 100.0 998.0)">0</text>
<rect x="92" y="84" width="16" height="16" fill="#ececec"/>
<rect x="92" y="100" width="16" height="16" fill="#e9e9e9"/>
<rect x="92" y="116" width="16" height="16" fill="#e9e9e9"/>
<rect x="92" y="132" width="16" height="16" fill="#eaeaea"/>
<rect x="92" y="148" width="16" height="16" fill="#e8e8e8"/>
<rect x="92" y="164" width="16" height="16" fill="#e8e8e8"/>
<rect x="92" y="180" width="16" height="16" fill="#e8e8e8"/>
<rect x="92" y="196" width="16" height="16" fill="#ededed"/>
<rect x="92" y="212" width="16" height="16" fill="#eaeaea"/>
<rect x="92" y="228" width="16" height="16" fill="#ececec"/>
<rect x="92" y="244" width="16" height="16" fill="#eaeaea"/>
<rect x="92" y="260" width="16" height="16" fill="#e9e9e9"/>
<rect x="92" y="276" width="16" height="16" fill="#e8e8e8"/>
<rect x="92" y="292" width="16" height="16" fill="#e7e7e7"/>
<rect x="92" y="308" width="16" height="16" fill="#eeeeee"/>
<rect x="92" y="324" width="16" height="16" fill="#ebebeb"/>
<rect x="92" y="340" width="16" height="16" fill="#ebebeb"/>
<rect x="92" y="356" width="16" height="16" fill="#e9e9e9"/>
<rect x="92" y="372" width="16" height="16" fill="#ececec"/>
<rect x="92" y="388" width="16" height="16" fill="#e7e7e7"/>
<rect x="92" y="404" width="16" height="16" fill="#e7e7e7"/>
<rect x="92" y="420" width="16" height="16" fill="#eeeeee"/>
<rect x="92" y="436" width="16" height="16" fill="#ececec"/>
<rect x="92" y="452" width="16" height="16" fill="#eaeaea"/>
<rect x="92" y="468" width="16" height="16" fill="#e9e9e9"/>
<rect x="92" y="484" width="16" height="16" fill="#eeeeee"/>
<rect x="92" y="500" width="16" height="16" fill="#e8e8e8"/>
<rect x="92" y="516" width="16" height="16" fill="#e7e7e7"/>
<rect x="92" y="532" width="16" height="16" fill="#ededed"/>
<rect x="92" y="548" width="16" height="16" fill="#ebebeb"/>
<rect x="92" y="564" width="16" height="16" fill="#eaeaea"/>
<rect x="92" y="580" width="16" height="16" fill="#eaeaea"/>
<rect x="92" y="596" width="16" height="16" fill="#eaeaea"/>
<rect x="92" y="612" width="16" height="16" fill="#e8e8e8"/>
<rect x="92" y="628" width="16" height="16" fill="#e7e7e7"/>
<rect x="92" y="644" width="16" height="16" fill="#eeeeee"/>
<rect x="92" y="660" width="16" height="16" fill="#ececec"/>
<rect x="92" y="676" width="16" height="16" fill="#ebebeb"/>
<rect x="92" y="692" width="16" height="16" fill="#e9e9e9"/>
<rect x="92" y="708" width="16" height="16" fill="#e9e9e9"/>
<rect x="92" y="724" width="16" height="16" fill="#e9e9e9"/>
<rect x="92" y="740" width="16" height="16" fill="#e7e7e7"/>
<rect x="92" y="756" width="16" height="16" fill="#efefef"/>
<rect x="92" y="772" width="16" height="16" fill="#eaeaea"/>
<rect x="92" y="788" width="16" height="16" fill="#ebebeb"/>
<rect x="92" y="804" width="16" height="16" fill="#e9e9e9"/>
<rect x="92" y="820" width="16" height="16" fill="#e9e9e9"/>
<rect x="92" y="836" width="16" height="16" fill="#ededed"/>
<rect x="92" y="852" width="16" height="16" fill="#e8e8e8"/>
<rect x="92" y="868" width="16" height="16" fill="#ededed"/>
<rect x="92" y="884" width="16" height="16" fill="#ececec"/>
<rect x="92" y="900" width="16" height="16" fill="#ececec"/>
<rect x="92" y="916" width="16" height="16" fill="#e9e9e9"/>
<rect x="92" y="932" width="16" height="16" fill="#e9e9e9"/>
<rect x="92" y="948" width="16" height="16" fill="#ededed"/>
<rect x="92" y="964" width="16" height="16" fill="#e8e8e8"/>
<line x1="92" y1="1032" x2="92" y2="1046" stroke="#f5f5f5"/>
<line x1="93" y1="1032" x2="93" y2="1046" stroke="#f4f4f4"/>
<line x1="94" y1="1032" x2="94" y2="1046" stroke="#f4f4f4"/>
<line x1="95" y1="1032" x2="95" y2="1046" stroke="#f3f3f3"/>
<line x1="96" y1="1032" x2="96" y2="1046" stroke="#f3f3f3"/>
<line x1="97" y1="1032" x2="97" y2="1046" stroke="#f2f2f2"/>
<line x1="98" y1="1032" x2="98" y2="1046" stroke="#f2f2f2"/>
<line x1="99" y1="1032" x2="99" y2="1046" stroke="#f1f1f1"/>
<line x1="100" y1="1032" x2="100" y2="1046" stroke="#f1f1f1"/>
<line x1="101" y1="1032" x2="101" y2="1046" stroke="#f0f0f0"/>
<line x1="102" y1="1032" x2="102" y2="1046" stroke="#f0f0f0"/>
<line x1="103" y1="1032" x2="103" y2="1046" stroke="#efefef"/>
<line x1="104" y1="1032" x2="104" y2="1046" stroke="#efefef"/>
<line x1="105" y1="1032" x2="105" y2="1046" stroke="#eeeeee"/>
<line x1="106" y1="1032" x2="106" y2="1046" stroke="#ededed"/>
<line x1="107" y1="1032" x2="107" y2="1046" stroke="#ededed"/>
<line x1="108" y1="1032" x2="108" y2="1046" stroke="#ececec"/>
<line x1="109" y1="1032" x2="109" y2="1046" stroke="#ececec"/>
<line x1="110" y1="1032" x2="110" y2="1046" stroke="#ebebeb"/>
<line x1="111" y1="1032" x2="111" y2="1046" stroke="#ebebeb"/>
<line x1="112" y1="1032" x2="112" y2="1046" stroke="#eaeaea"/>
<line x1="113" y1="1032" x2="113" y2="1046" stroke="#eaeaea"/>
<line x1="114" y1="1032" x2="114" y2="1046" stroke="#e9e9e9"/>
<line x1="115" y1="1032" x2="115" y2="1046" stroke="#e9e9e9"/>
<line x1="116" y1="1032" x2="116" y2="1046" stroke="#e8e8e8"/>
<line x1="117" y1="1032" x2="117" y2="1046" stroke="#e8e8e8"/>
<line x1="118" y1="1032" x2="118" y2="1046" stroke="#e7e7e7"/>
<line x1="119" y1="1032" x2="119" y2="1046" stroke="#e6e6e6"/>
<line x1="120" y1="1032" x2="120" y2="1046" stroke="#e6e6e6"/>
<line x1="121" y1="1032" x2="121" y2="1046" stroke="#e5e5e5"/>
<line x1="122" y1="1032" x2="122" y2="1046" stroke="#e5e5e5"/>
<line x1="123" y1="1032" x2="123" y2="1046" stroke="#e4e4e4"/>
<line x1="124" y1="1032" x2="124" y2="1046" stroke="#e4e4e4"/>
<line x1="125" y1="1032" x2="125" y2="1046" stroke="#e3e3e3"/>
<line x1="126" y1="1032" x2="126" y2="1046" stroke="#e3e3e3"/>
<line x1="127" y1="1032" x2="127" y2="1046" stroke="#e2e2e2"/>
<line x1="128" y1="1032" x2="128" y2="1046" stroke="#e2e2e2"/>
<line x1="129" y1="1032" x2="129" y2="1046" stroke="#e1e1e1"/>
<line x1="130" y1="1032" x2="130" y2="1046" stroke="#e1e1e1"/>
<line x1="131" y1="1032" x2="131" y2="1046" stroke="#e0e0e0"/>
<line x1="132" y1="1032" x2="132" y2="1046" stroke="#dfdfdf"/>
<line x1="133" y1="1032" x2="133" y2="1046" stroke="#dfdfdf"/>
<line x1="134" y1="1032" x2="134" y2="1046" stroke="#dedede"/>
<line x1="135" y1="1032" x2="135" y2="1046" stroke="#dedede"/>
<line x1="136" y1="1032" x2="136" y2="1046" stroke="#dddddd"/>
<line x1="137" y1="1032" x2="137" y2="1046" stroke="#dddddd"/>
<line x1="138" y1="1032" x2="138" y2="1046" stroke="#dcdcdc"/>
<line x1="139" y1="1032" x2="139" y2="1046" stroke="#dcdcdc"/>
<line x1="140" y1="1032" x2="140" y2="1046" stroke="#dbdbdb"/>
<line x1="141" y1="1032" x2="141" y2="1046" stroke="#dbdbdb"/>
<line x1="142" y1="1032" x2="142" y2="1046" stroke="#dadada"/>
<line x1="143" y1="1032" x2="143" y2="1046" stroke="#dadada"/>
<line x1="144" y1="1032" x2="144" y2="1046" stroke="#d9d9d9"/>
<line x1="145" y1="1032" x2="145" y2="1046" stroke="#d8d8d8"/>
<line x1="146" y1="1032" x2="146" y2="1046" stroke="#d8d8d8"/>
<line x1="147" y1="1032" x2="147" y2="1046" stroke="#d7d7d7"/>
<line x1="148" y1="1032" x2="148" y2="1046" stroke="#d7d7d7"/>
<line x1="149" y1="1032" x2="149" y2="1046" stroke="#d6d6d6"/>
<line x1="150" y1="1032" x2="150" y2="1046" stroke="#d6d6d6"/>
<line x1="151" y1="1032" x2="151" y2="1046" stroke="#d5d5d5"/>
<line x1="152" y1="1032" x2="152" y2="1046" stroke="#d5d5d5"/>
<line x1="153" y1="1032" x2="153" y2="1046" stroke="#d4d4d4"/>
<line x1="154" y1="1032" x2="154" y2="1046" stroke="#d4d4d4"/>
<line x1="155" y1="1032" x2="155" y2="1046" stroke="#d3d3d3"/>
<line x1="156" y1="1032" x2="156" y2="1046" stroke="#d3d3d3"/>
<line x1="157" y1="1032" x2="157" y2="1046" stroke="#d2d2d2"/>
<line x1="158" y1="1032" x2="158" y2="1046" stroke="#d1d1d1"/>
<line x1="159" y1="1032" x2="159" y2="1046" stroke="#d1d1d1"/>
<line x1="160" y1="1032" x2="160" y2="1046" stroke="#d0d0d0"/>
<line x1="161" y1="1032" x2="161" y2="1046" stroke="#d0d0d0"/>
<line x1="162" y1="1032" x2="162" y2="1046" stroke="#cfcfcf"/>
<line x1="163" y1="1032" x2="163" y2="1046" stroke="#cfcfcf"/>
<line x1="164" y1="1032" x2="164" y2="1046" stroke="#cecece"/>
<line x1="165" y1="1032" x2="165" y2="1046" stroke="#cecece"/>
<line x1="166" y1="1032" x2="166" y2="1046" stroke="#cdcdcd"/>
<line x1="167" y1="1032" x2="167" y2="1046" stroke="#cdcdcd"/>
<line x1="168" y1="1032" x2="168" y2="1046" stroke="#cccccc"/>
<line x1="169" y1="1032" x2="169" y2="1046" stroke="#cccccc"/>
<line x1="170" y1="1032" x2="170" y2="1046" stroke="#cbcbcb"/>
<line x1="171" y1="1032" x2="171" y2="1046" stroke="#cacaca"/>
<line x1="172" y1="1032" x2="172" y2="1046" stroke="#cacaca"/>
<line x1="173" y1="1032" x2="173" y2="1046" stroke="#c9c9c9"/>
<line x1="174" y1="1032" x2="174" y2="1046" stroke="#c9c9c9"/>
<line x1="175" y1="1032" x2="175" y2="1046" stroke="#c8c8c8"/>
<line x1="176" y1="1032" x2="176" y2="1046" stroke="#c8c8c8"/>
<line x1="177" y1="1032" x2="177" y2="1046" stroke="#c7c7c7"/>
<line x1="178" y1="1032" x2="178" y2="1046" stroke="#c7c7c7"/>
<line x1="179" y1="1032" x2="179" y2="1046" stroke="#c6c6c6"/>
<line x1="180" y1="1032" x2="180" y2="1046" stroke="#c6c6c6"/>
<line x1="181" y1="1032" x2="181" y2="1046" stroke="#c5c5c5"/>
<line x1="182" y1="1032" x2="182" y2="1046" stroke="#c5c5c5"/>
<line x1="183" y1="1032" x2="183" y2="1046" stroke="#c4c4c4"/>
<line x1="184" y1="1032" x2="184" y2="1046" stroke="#c3c3c3"/>
<line x1="185" y1="1032" x2="185" y2="1046" stroke="#c3c3c3"/>
<line x1="186" y1="1032" x2="186" y2="1046" stroke="#c2c2c2"/>
<line x1="187" y1="1032" x2="187" y2="1046" stroke="#c2c2c2"/>
<line x1="188" y1="1032" x2="188" y2="1046" stroke="#c1c1c1"/>
<line x1="189" y1="1032" x2="189" y2="1046" stroke="#c1c1c1"/>
<line x1="190" y1="1032" x2="190" y2="1046" stroke="#c0c0c0"/>
<line x1="191" y1="1032" x2="191" y2="1046" stroke="#c0c0c0"/>
<line x1="192" y1="1032" x2="192" y2="1046" stroke="#bfbfbf"/>
<line x1="193" y1="1032" x2="193" y2="1046" stroke="#bfbfbf"/>
<line x1="194" y1="1032" x2="194" y2="1046" stroke="#bebebe"/>
<line x1="195" y1="1032" x2="195" y2="1046" stroke="#bebebe"/>
<line x1="196" y1="1032" x2="196" y2="1046" stroke="#bdbdbd"/>
<line x1="197" y1="1032" x2="197" y2="1046" stroke="#bcbcbc"/>
<line x1="198" y1="1032" x2="198" y2="1046" stroke="#bcbcbc"/>
<line x1="199" y1="1032" x2="199" y2="1046" stroke="#bbbbbb"/>
<line x1="200" y1="1032" x2="200" y2="1046" stroke="#bbbbbb"/>
<line x1="201" y1="1032" x2="201" y2="1046" stroke="#bababa"/>
<line x1="202" y1="1032" x2="202" y2="1046" stroke="#bababa"/>
<line x1="203" y1="1032" x2="203" y2="1046" stroke="#b9b9b9"/>
<line x1="204" y1="1032" x2="204" y2="1046" stroke="#b9b9b9"/>
<line x1="205" y1="1032" x2="205" y2="1046" stroke="#b8b8b8"/>
<line x1="206" y1="1032" x2="206" y2="1046" stroke="#b8b8b8"/>
<line x1="207" y1="1032" x2="207" y2="1046" stroke="#b7b7b7"/>
<line x1="208" y1="1032" x2="208" y2="1046" stroke="#b6b6b6"/>
<line x1="209" y1="1032" x2="209" y2="1046" stroke="#b6b6b6"/>
<line x1="210" y1="1032" x2="210" y2="1046" stroke="#b5b5b5"/>
<line x1="211" y1="1032" x2="211" y2="1046" stroke="#b5b5b5"/>
<line x1="212" y1="1032" x2="212" y2="1046" stroke="#b4b4b4"/>
<line x1="213" y1="1032" x2="213" y2="1046" stroke="#b4b4b4"/>
<line x1="214" y1="1032" x2="214" y2="1046" stroke="#b3b3b3"/>
<line x1="215" y1="1032" x2="215" y2="1046" stroke="#b3b3b3"/>
<line x1="216" y1="1032" x2="216" y2="1046" stroke="#b2b2b2"/>
<line x1="217" y1="1032" x2="217" y2="1046" stroke="#b2b2b2"/>
<line x1="218" y1="1032" x2="218" y2="1046" stroke="#b1b1b1"/>
<line x1="219" y1="1032" x2="219" y2="1046" stroke="#b1b1b1"/>
<line x1="220" y1="1032" x2="220" y2="1046" stroke="#b0b0b0"/>
<line x1="221" y1="1032" x2="221" y2="1046" stroke="#afafaf"/>
<line x1="222" y1="1032" x2="222" y2="1046" stroke="#afafaf"/>
<line x1="223" y1="1032" x2="223" y2="1046" stroke="#aeaeae"/>
<line x1="224" y1="1032" x2="224" y2="1046" stroke="#aeaeae"/>
<line x1="225" y1="1032" x2="225" y2="1046" stroke="#adadad"/>
<line x1="226" y1="1032" x2="226" y2="1046" stroke="#adadad"/>
<line x1="227" y1="1032" x2="227" y2="1046" stroke="#acacac"/>
<line x1="228" y1="1032" x2="228" y2="1046" stroke="#acacac"/>
<line x1="229" y1="1032" x2="229" y2="1046" stroke="#ababab"/>
<line x1="230" y1="1032" x2="230" y2="1046" stroke="#ababab"/>
<line x1="231" y1="1032" x2="231" y2="1046" stroke="#aaaaaa"/>
<line x1="232" y1="1032" x2="232" y2="1046" stroke="#aaaaaa"/>
<line x1="233" y1="1032" x2="233" y2="1046" stroke="#a9a9a9"/>
<line x1="234" y1="1032" x2="234" y2="1046" stroke="#a8a8a8"/>
<line x1="235" y1="1032" x2="235" y2="1046" stroke="#a8a8a8"/>
<line x1="236" y1="1032" x2="236" y2="1046" stroke="#a7a7a7"/>
<line x1="237" y1="1032" x2="237" y2="1046" stroke="#a7a7a7"/>
<line x1="238" y1="1032" x2="238" y2="1046" stroke="#a6a6a6"/>
<line x1="239" y1="1032" x2="239" y2="1046" stroke="#a6a6a6"/>
<line x1="240" y1="1032" x2="240" y2="1046" stroke="#a5a5a5"/>
<line x1="241" y1="1032" x2="241" y2="1046" stroke="#a5a5a5"/>
<line x1="242" y1="1032" x2="242" y2="1046" stroke="#a4a4a4"/>
<line x1="243" y1="1032" x2="243" y2="1046" stroke="#a4a4a4"/>
<line x1="244" y1="1032" x2="244" y2="1046" stroke="#a3a3a3"/>
<line x1="245" y1="1032" x2="245" y2="1046" stroke="#a3a3a3"/>
<line x1="246" y1="1032" x2="246" y2="1046" stroke="#a2a2a2"/>
<line x1="247" y1="1032" x2="247" y2="1046" stroke="#a1a1a1"/>
<line x1="248" y1="1032" x2="248" y2="1046" stroke="#a1a1a1"/>
<line x1="249" y1="1032" x2="249" y2="1046" stroke="#a0a0a0"/>
<line x1="250" y1="1032" x2="250" y2="1046" stroke="#a0a0a0"/>
<line x1="251" y1="1032" x2="251" y2="1046" stroke="#9f9f9f"/>
<line x1="252" y1="1032" x2="252" y2="1046" stroke="#9f9f9f"/>
<line x1="253" y1="1032" x2="253" y2="1046" stroke="#9e9e9e"/>
<line x1="254" y1="1032" x2="254" y2="1046" stroke="#9e9e9e"/>
<line x1="255" y1="1032" x2="255" y2="1046" stroke="#9d9d9d"/>
<line x1="256" y1="1032" x2="256" y2="1046" stroke="#9d9d9d"/>
<line x1="257" y1="1032" x2="257" y2="1046" stroke="#9c9c9c"/>
<line x1="258" y1="1032" x2="258" y2="1046" stroke="#9c9c9c"/>
<line x1="259" y1="1032" x2="259" y2="1046" stroke="#9b9b9b"/>
<line x1="260" y1="1032" x2="260" y2="1046" stroke="#9a9a9a"/>
<line x1="261" y1="1032" x2="261" y2="1046" stroke="#9a9a9a"/>
<line x1="262" y1="1032" x2="262" y2="1046" stroke="#999999"/>
<line x1="263" y1="1032" x2="263" y2="1046" stroke="#999999"/>
<line x1="264" y1="1032" x2="264" y2="1046" stroke="#989898"/>
<line x1="265" y1="1032" x2="265" y2="1046" stroke="#989898"/>
<line x1="266" y1="1032" x2="266" y2="1046" stroke="#979797"/>
<line x1="267" y1="1032" x2="267" y2="1046" stroke="#979797"/>
<line x1="268" y1="1032" x2="268" y2="1046" stroke="#969696"/>
<line x1="269" y1="1032" x2="269" y2="1046" stroke="#969696"/>
<line x1="270" y1="1032" x2="270" y2="1046" stroke="#959595"/>
<line x1="271" y1="1032" x2="271" y2="1046" stroke="#959595"/>
<line x1="272" y1="1032" x2="272" y2="1046" stroke="#949494"/>
<line x1="273" y1="1032" x2="273" y2="1046" stroke="#939393"/>
<line x1="274" y1="1032" x2="274" y2="1046" stroke="#939393"/>
<line x1="275" y1="1032" x2="275" y2="1046" stroke="#929292"/>
<line x1="276" y1="1032" x2="276" y2="1046" stroke="#929292"/>
<line x1="277" y1="1032" x2="277" y2="1046" stroke="#919191"/>
<line x1="278" y1="1032" x2="278" y2="1046" stroke="#919191"/>
<line x1="279" y1="1032" x2="279" y2="1046" stroke="#909090"/>
<line x1="280" y1="1032" x2="280" y2="1046" stroke="#909090"/>
<line x1="281" y1="1032" x2="281" y2="1046" stroke="#8f8f8f"/>
<line x1="282" y1="1032" x2="282" y2="1046" stroke="#8f8f8f"/>
<line x1="283" y1="1032" x2="283" y2="1046" stroke="#8e8e8e"/>
<line x1="284" y1="1032" x2="284" y2="1046" stroke="#8e8e8e"/>
<line x1="285" y1="1032" x2="285" y2="1046" stroke="#8d8d8d"/>
<line x1="286" y1="1032" x2="286" y2="1046" stroke="#8c8c8c"/>
<line x1="287" y1="1032" x2="287" y2="1046" stroke="#8c8c8c"/>
<line x1="288" y1="1032" x2="288" y2="1046" stroke="#8b8b8b"/>
<line x1="289" y1="1032" x2="289" y2="1046" stroke="#8b8b8b"/>
<line x1="290" y1="1032" x2="290" y2="1046" stroke="#8a8a8a"/>
<line x1="291" y1="1032" x2="291" y2="1046" stroke="#8a8a8a"/>
<line x1="292" y1="1032" x2="292" y2="1046" stroke="#898989"/>
<line x1="293" y1="1032" x2="293" y2="1046" stroke="#898989"/>
<line x1="294" y1="1032" x2="294" y2="1046" stroke="#888888"/>
<line x1="295" y1="1032" x2="295" y2="1046" stroke="#888888"/>
<line x1="296" y1="1032" x2="296" y2="1046" stroke="#878787"/>
<line x1="297" y1="1032" x2="297" y2="1046" stroke="#878787"/>
<line x1="298" y1="1032" x2="298" y2="1046" stroke="#868686"/>
<line x1="299" y1="1032" x2="299" y2="1046" stroke="#858585"/>
<line x1="300" y1="1032" x2="300" y2="1046" stroke="#858585"/>
<line x1="301" y1="1032" x2="301" y2="1046" stroke="#848484"/>
<line x1="302" y1="1032" x2="302" y2="1046" stroke="#848484"/>
<line x1="303" y1="1032" x2="303" y2="1046" stroke="#838383"/>
<line x1="304" y1="1032" x2="304" y2="1046" stroke="#838383"/>
<line x1="305" y1="1032" x2="305" y2="1046" stroke="#828282"/>
<line x1="306" y1="1032" x2="306" y2="1046" stroke="#828282"/>
<line x1="307" y1="1032" x2="307" y2="1046" stroke="#818181"/>
<line x1="308" y1="1032" x2="308" y2="1046" stroke="#818181"/>
<line x1="309" y1="1032" x2="309" y2="1046" stroke="#808080"/>
<line x1="310" y1="1032" x2="310" y2="1046" stroke="#808080"/>
<line x1="311" y1="1032" x2="311" y2="1046" stroke="#7f7f7f"/>
<rect x="92" y="1032" width="220" height="14" fill="none" stroke="#444"/>
<line x1="92.0" y1="1046" x2="92.0" y2="1050" stroke="#444"/>
<text x="92.0" y="1064.0" text-anchor="middle" font-family="sans-serif" font-size="10">0.00</text>
<line x1="147.0" y1="1046" x2="147.0" y2="1050" stroke="#444"/>
<text x="147.0" y="1064.0" text-anchor="middle" font-family="sans-serif" font-size="10">0.25</text>
<line x1="202.0" y1="1046" x2="202.0" y2="1050" stroke="#444"/>
<text x="202.0" y="1064.0" text-anchor="middle" font-family="sans-serif" font-size="10">0.50</text>
<line x1="257.0" y1="1046" x2="257.0" y2="1050" stroke="#444"/>
<text x="257.0" y="1064.0" text-anchor="middle" font-family="sans-serif" font-size="10">0.75</text>
<line x1="312.0" y1="1046" x2="312.0" y2="1050" stroke="#444"/>
<text x="312.0" y="1064.0" text-anchor="middle" font-family="sans-serif" font-size="10">1.00</text>
<text x="202.0" y="1076.0" text-anchor="middle" font-family="sans-serif" font-size="13">window_id</text>
<text x="26" y="532.0" transform="rotate(-90 26 532.0)" text-anchor="middle" font-family="sans-serif" font-size="13">core</text>
</svg>