<svg xmlns="http://www.w3.org/2000/svg" width="472" height="252">
<rect width="100%" height="100%" fill="white"/>
<text x="236.0" y="28" text-anchor="middle" font-family="sans-serif" font-size="20">SIT Heatmap</text>
<text x="236.0" y="48" text-anchor="middle" font-family="sans-serif" font-size="12">tt_matmul_single | Tenstorrent</text>
<text x="236.0" y="64" text-anchor="middle" font-family="sans-serif" font-size="11">Per-window SIT value (prefers sit_no_work_window_active)</text>
<rect x="92" y="84" width="220" height="48" fill="white" stroke="#222"/>
<text x="82" y="96.0" text-anchor="end" font-family="sans-serif" font-size="11">core 0</text>
<text x="100.0" y="150.0" text-anchor="middle" font-family="sans-serif" font-size="10" transform="rotate(25 100.0 150.0)">0</text>
<rect x="92" y="84" width="16" height="16" fill="#87b6da"/>
<line x1="92" y1="184" x2="92" y2="198" stroke="#eff6ff"/>
<line x1="93" y1="184" x2="93" y2="198" stroke="#eef5ff"/>
<line x1="94" y1="184" x2="94" y2="198" stroke="#edf5fe"/>
<line x1="95" y1="184" x2="95" y2="198" stroke="#ecf4fe"/>
<line x1="96" y1="184" x2="96" y2="198" stroke="#ebf4fe"/>
<line x1="97" y1="184" x2="97" y2="198" stroke="#eaf3fd"/>
<line x1="98" y1="184" x2="98" y2="198" stroke="#e9f3fd"/>
<line x1="99" y1="184" x2="99" y2="198" stroke="#e8f2fd"/>
<line x1="100" y1="184" x2="100" y2="198" stroke="#e7f1fc"/>
<line x1="101" y1="184" x2="101" y2="198" stroke="#e6f1fc"/>
<line x1="102" y1="184" x2="102" y2="198" stroke="#e6f0fc"/>
<line x1="103" y1="184" x2="103" y2="198" stroke="#e5f0fb"/>
<line x1="104" y1="184" x2="104" y2="198" stroke="#e4effb"/>
<line x1="105" y1="184" x2="105" y2="198" stroke="#e3eefb"/>
<line x1="106" y1="184" x2="106" y2="198" stroke="#e2eefa"/>
<line x1="107" y1="184" x2="107" y2="198" stroke="#e1edfa"/>
<line x1="108" y1="184" x2="108" y2="198" stroke="#e0edfa"/>
<line x1="109" y1="184" x2="109" y2="198" stroke="#dfecf9"/>
<line x1="110" y1="184" x2="110" y2="198" stroke="#deecf9"/>
<line x1="111" y1="184" x2="111" y2="198" stroke="#ddebf8"/>
<line x1="112" y1="184" x2="112" y2="198" stroke="#dceaf8"/>
<line x1="113" y1="184" x2="113" y2="198" stroke="#dbeaf8"/>
<line x1="114" y1="184" x2="114" y2="198" stroke="#dae9f7"/>
<line x1="115" y1="184" x2="115" y2="198" stroke="#d9e9f7"/>
<line x1="116" y1="184" x2="116" y2="198" stroke="#d8e8f7"/>
<line x1="117" y1="184" x2="117" y2="198" stroke="#d7e8f6"/>
<line x1="118" y1="184" x2="118" y2="198" stroke="#d6e7f6"/>
<line x1="119" y1="184" x2="119" y2="198" stroke="#d5e6f6"/>
<line x1="120" y1="184" x2="120" y2="198" stroke="#d4e6f5"/>
<line x1="121" y1="184" x2="121" y2="198" stroke="#d3e5f5"/>
<line x1="122" y1="184" x2="122" y2="198" stroke="#d3e5f5"/>
<line x1="123" y1="184" x2="123" y2="198" stroke="#d2e4f4"/>
<line x1="124" y1="184" x2="124" y2="198" stroke="#d1e3f4"/>
<line x1="125" y1="184" x2="125" y2="198" stroke="#d0e3f4"/>
<line x1="126" y1="184" x2="126" y2="198" stroke="#cfe2f3"/>
<line x1="127" y1="184" x2="127" y2="198" stroke="#cee2f3"/>
<line x1="128" y1="184" x2="128" y2="198" stroke="#cde1f3"/>
<line x1="129" y1="184" x2="129" y2="198" stroke="#cce1f2"/>
<line x1="130" y1="184" x2="130" y2="198" stroke="#cbe0f2"/>
<line x1="131" y1="184" x2="131" y2="198" stroke="#cadff2"/>
<line x1="132" y1="184" x2="132" y2="198" stroke="#c9dff1"/>
<line x1="133" y1="184" x2="133" y2="198" stroke="#c8def1"/>
<line x1="134" y1="184" x2="134" y2="198" stroke="#c7def1"/>
<line x1="135" y1="184" x2="135" y2="198" stroke="#c6ddf0"/>
<line x1="136" y1="184" x2="136" y2="198" stroke="#c5dcf0"/>
<line x1="137" y1="184" x2="137" y2="198" stroke="#c4dcf0"/>
<line x1="138" y1="184" x2="138" y2="198" stroke="#c3dbef"/>
<line x1="139" y1="184" x2="139" y2="198" stroke="#c2dbef"/>
<line x1="140" y1="184" x2="140" y2="198" stroke="#c1daef"/>
<line x1="141" y1="184" x2="141" y2="198" stroke="#c0daee"/>
<line x1="142" y1="184" x2="142" y2="198" stroke="#c0d9ee"/>
<line x1="143" y1="184" x2="143" y2="198" stroke="#bfd8ee"/>
<line x1="144" y1="184" x2="144" y2="198" stroke="#bed8ed"/>
<line x1="145" y1="184" x2="145" y2="198" stroke="#bdd7ed"/>
<line x1="146" y1="184" x2="146" y2="198" stroke="#bcd7ed"/>
<line x1="147" y1="184" x2="147" y2="198" stroke="#bbd6ec"/>
<line x1="148" y1="184" x2="148" y2="198" stroke="#bad6ec"/>
<line x1="149" y1="184" x2="149" y2="198" stroke="#b9d5eb"/>
<line x1="150" y1="184" x2="150" y2="198" stroke="#b8d4eb"/>
<line x1="151" y1="184" x2="151" y2="198" stroke="#b7d4eb"/>
<line x1="152" y1="184" x2="152" y2="198" stroke="#b6d3ea"/>
<line x1="153" y1="184" x2="153" y2="198" stroke="#b5d3ea"/>
<line x1="154" y1="184" x2="154" y2="198" stroke="#b4d2ea"/>
<line x1="155" y1="184" x2="155" y2="198" stroke="#b3d1e9"/>
<line x1="156" y1="184" x2="156" y2="198" stroke="#b2d1e9"/>
<line x1="157" y1="184" x2="157" y2="198" stroke="#b1d0e9"/>
<line x1="158" y1="184" x2="158" y2="198" stroke="#b0d0e8"/>
<line x1="159" y1="184" x2="159" y2="198" stroke="#afcfe8"/>
<line x1="160" y1="184" x2="160" y2="198" stroke="#aecfe8"/>
<line x1="161" y1="184" x2="161" y2="198" stroke="#adcee7"/>
<line x1="162" y1="184" x2="162" y2="198" stroke="#adcde7"/>
<line x1="163" y1="184" x2="163" y2="198" stroke="#accde7"/>
<line x1="164" y1="184" x2="164" y2="198" stroke="#abcce6"/>
<line x1="165" y1="184" x2="165" y2="198" stroke="#aacce6"/>
<line x1="166" y1="184" x2="166" y2="198" stroke="#a9cbe6"/>
<line x1="167" y1="184" x2="167" y2="198" stroke="#a8cbe5"/>
<line x1="168" y1="184" x2="168" y2="198" stroke="#a7cae5"/>
<line x1="169" y1="184" x2="169" y2="198" stroke="#a6c9e5"/>
<line x1="170" y1="184" x2="170" y2="198" stroke="#a5c9e4"/>
<line x1="171" y1="184" x2="171" y2="198" stroke="#a4c8e4"/>
<line x1="172" y1="184" x2="172" y2="198" stroke="#a3c8e4"/>
<line x1="173" y1="184" x2="173" y2="198" stroke="#a2c7e3"/>
<line x1="174" y1="184" x2="174" y2="198" stroke="#a1c6e3"/>
<line x1="175" y1="184" x2="175" y2="198" stroke="#a0c6e3"/>
<line x1="176" y1="184" x2="176" y2="198" stroke="#9fc5e2"/>
<line x1="177" y1="184" x2="177" y2="198" stroke="#9ec5e2"/>
<line x1="178" y1="184" x2="178" y2="198" stroke="#9dc4e2"/>
<line x1="179" y1="184" x2="179" y2="198" stroke="#9cc4e1"/>
<line x1="180" y1="184" x2="180" y2="198" stroke="#9bc3e1"/>
<line x1="181" y1="184" x2="181" y2="198" stroke="#9ac2e1"/>
<line x1="182" y1="184" x2="182" y2="198" stroke="#9ac2e0"/>
<line x1="183" y1="184" x2="183" y2="198" stroke="#99c1e0"/>
<line x1="184" y1="184" x2="184" y2="198" stroke="#98c1df"/>
<line x1="185" y1="184" x2="185" y2="198" stroke="#97c0df"/>
<line x1="186" y1="184" x2="186" y2="198" stroke="#96bfdf"/>
<line x1="187" y1="184" x2="187" y2="198" stroke="#95bfde"/>
<line x1="188" y1="184" x2="188" y2="198" stroke="#94bede"/>
<line x1="189" y1="184" x2="189" y2="198" stroke="#93bede"/>
<line x1="190" y1="184" x2="190" y2="198" stroke="#92bddd"/>
<line x1="191" y1="184" x2="191" y2="198" stroke="#91bddd"/>
<line x1="192" y1="184" x2="192" y2="198" stroke="#90bcdd"/>
<line x1="193" y1="184" x2="193" y2="198" stroke="#8fbbdc"/>
<line x1="194" y1="184" x2="194" y2="198" stroke="#8ebbdc"/>
<line x1="195" y1="184" x2="195" y2="198" stroke="#8dbadc"/>
<line x1="196" y1="184" x2="196" y2="198" stroke="#8cbadb"/>
<line x1="197" y1="184" x2="197" y2="198" stroke="#8bb9db"/>
<line x1="198" y1="184" x2="198" y2="198" stroke="#8ab9db"/>
<line x1="199" y1="184" x2="199" y2="198" stroke="#89b8da"/>
<line x1="200" y1="184" x2="200" y2="198" stroke="#88b7da"/>
<line x1="201" y1="184" x2="201" y2="198" stroke="#87b7da"/>
<line x1="202" y1="184" x2="202" y2="198" stroke="#87b6d9"/>
<line x1="203" y1="184" x2="203" y2="198" stroke="#86b6d9"/>
<line x1="204" y1="184" x2="204" y2="198" stroke="#85b5d9"/>
<line x1="205" y1="184" x2="205" y2="198" stroke="#84b4d8"/>
<line x1="206" y1="184" x2="206" y2="198" stroke="#83b4d8"/>
<line x1="207" y1="184" x2="207" y2="198" stroke="#82b3d8"/>
<line x1="208" y1="184" x2="208" y2="198" stroke="#81b3d7"/>
<line x1="209" y1="184" x2="209" y2="198" stroke="#80b2d7"/>
<line x1="210" y1="184" x2="210" y2="198" stroke="#7fb2d7"/>
<line x1="211" y1="184" x2="211" y2="198" stroke="#7eb1d6"/>
<line x1="212" y1="184" x2="212" y2="198" stroke="#7db0d6"/>
<line x1="213" y1="184" x2="213" y2="198" stroke="#7cb0d6"/>
<line x1="214" y1="184" x2="214" y2="198" stroke="#7bafd5"/>
<line x1="215" y1="184" x2="215" y2="198" stroke="#7aafd5"/>
<line x1="216" y1="184" x2="216" y2="198" stroke="#79aed5"/>
<line x1="217" y1="184" x2="217" y2="198" stroke="#78aed4"/>
<line x1="218" y1="184" x2="218" y2="198" stroke="#77add4"/>
<line x1="219" y1="184" x2="219" y2="198" stroke="#76acd4"/>
<line x1="220" y1="184" x2="220" y2="198" stroke="#75acd3"/>
<line x1="221" y1="184" x2="221" y2="198" stroke="#74abd3"/>
<line x1="222" y1="184" x2="222" y2="198" stroke="#74abd2"/>
<line x1="223" y1="184" x2="223" y2="198" stroke="#73aad2"/>
<line x1="224" y1="184" x2="224" y2="198" stroke="#72a9d2"/>
<line x1="225" y1="184" x2="225" y2="198" stroke="#71a9d1"/>
<line x1="226" y1="184" x2="226" y2="198" stroke="#70a8d1"/>
<line x1="227" y1="184" x2="227" y2="198" stroke="#6fa8d1"/>
<line x1="228" y1="184" x2="228" y2="198" stroke="#6ea7d0"/>
<line x1="229" y1="184" x2="229" y2="198" stroke="#6da7d0"/>
<line x1="230" y1="184" x2="230" y2="198" stroke="#6ca6d0"/>
<line x1="231" y1="184" x2="231" y2="198" stroke="#6ba5cf"/>
<line x1="232" y1="184" x2="232" y2="198" stroke="#6aa5cf"/>
<line x1="233" y1="184" x2="233" y2="198" stroke="#69a4cf"/>
<line x1="234" y1="184" x2="234" y2="198" stroke="#68a4ce"/>
<line x1="235" y1="184" x2="235" y2="198" stroke="#67a3ce"/>
<line x1="236" y1="184" x2="236" y2="198" stroke="#66a2ce"/>
<line x1="237" y1="184" x2="237" y2="198" stroke="#65a2cd"/>
<line x1="238" y1="184" x2="238" y2="198" stroke="#64a1cd"/>
<line x1="239" y1="184" x2="239" y2="198" stroke="#63a1cd"/>
<line x1="240" y1="184" x2="240" y2="198" stroke="#62a0cc"/>
<line x1="241" y1="184" x2="241" y2="198" stroke="#61a0cc"/>
<line x1="242" y1="184" x2="242" y2="198" stroke="#619fcc"/>
<line x1="243" y1="184" x2="243" y2="198" stroke="#609ecb"/>
<line x1="244" y1="184" x2="244" y2="198" stroke="#5f9ecb"/>
<line x1="245" y1="184" x2="245" y2="198" stroke="#5e9dcb"/>
<line x1="246" y1="184" x2="246" y2="198" stroke="#5d9dca"/>
<line x1="247" y1="184" x2="247" y2="198" stroke="#5c9cca"/>
<line x1="248" y1="184" x2="248" y2="198" stroke="#5b9cca"/>
<line x1="249" y1="184" x2="249" y2="198" stroke="#5a9bc9"/>
<line x1="250" y1="184" x2="250" y2="198" stroke="#599ac9"/>
<line x1="251" y1="184" x2="251" y2="198" stroke="#589ac9"/>
<line x1="252" y1="184" x2="252" y2="198" stroke="#5799c8"/>
<line x1="253" y1="184" x2="253" y2="198" stroke="#5699c8"/>
<line x1="254" y1="184" x2="254" y2="198" stroke="#5598c8"/>
<line x1="255" y1="184" x2="255" y2="198" stroke="#5497c7"/>
<line x1="256" y1="184" x2="256" y2="198" stroke="#5397c7"/>
<line x1="257" y1="184" x2="257" y2="198" stroke="#5296c6"/>
<line x1="258" y1="184" x2="258" y2="198" stroke="#5196c6"/>
<line x1="259" y1="184" x2="259" y2="198" stroke="#5095c6"/>
<line x1="260" y1="184" x2="260" y2="198" stroke="#4f95c5"/>
<line x1="261" y1="184" x2="261" y2="198" stroke="#4e94c5"/>
<line x1="262" y1="184" x2="262" y2="198" stroke="#4e93c5"/>
<line x1="263" y1="184" x2="263" y2="198" stroke="#4d93c4"/>
<line x1="264" y1="184" x2="264" y2="198" stroke="#4c92c4"/>
<line x1="265" y1="184" x2="265" y2="198" stroke="#4b92c4"/>
<line x1="266" y1="184" x2="266" y2="198" stroke="#4a91c3"/>
<line x1="267" y1="184" x2="267" y2="198" stroke="#4991c3"/>
<line x1="268" y1="184" x2="268" y2="198" stroke="#4890c3"/>
<line x1="269" y1="184" x2="269" y2="198" stroke="#478fc2"/>
<line x1="270" y1="184" x2="270" y2="198" stroke="#468fc2"/>
<line x1="271" y1="184" x2="271" y2="198" stroke="#458ec2"/>
<line x1="272" y1="184" x2="272" y2="198" stroke="#448ec1"/>
<line x1="273" y1="184" x2="273" y2="198" stroke="#438dc1"/>
<line x1="274" y1="184" x2="274" y2="198" stroke="#428cc1"/>
<line x1="275" y1="184" x2="275" y2="198" stroke="#418cc0"/>
<line x1="276" y1="184" x2="276" y2="198" stroke="#408bc0"/>
<line x1="277" y1="184" x2="277" y2="198" stroke="#3f8bc0"/>
<line x1="278" y1="184" x2="278" y2="198" stroke="#3e8abf"/>
<line x1="279" y1="184" x2="279" y2="198" stroke="#3d8abf"/>
<line x1="280" y1="184" x2="280" y2="198" stroke="#3c89bf"/>
<line x1="281" y1="184" x2="281" y2="198" stroke="#3b88be"/>
<line x1="282" y1="184" x2="282" y2="198" stroke="#3b88be"/>
<line x1="283" y1="184" x2="283" y2="198" stroke="#3a87be"/>
<line x1="284" y1="184" x2="284" y2="198" stroke="#3987bd"/>
<line x1="285" y1="184" x2="285" y2="198" stroke="#3886bd"/>
<line x1="286" y1="184" x2="286" y2="198" stroke="#3785bd"/>
<line x1="287" y1="184" x2="287" y2="198" stroke="#3685bc"/>
<line x1="288" y1="184" x2="288" y2="198" stroke="#3584bc"/>
<line x1="289" y1="184" x2="289" y2="198" stroke="#3484bc"/>
<line x1="290" y1="184" x2="290" y2="198" stroke="#3383bb"/>
<line x1="291" y1="184" x2="291" y2="198" stroke="#3283bb"/>
<line x1="292" y1="184" x2="292" y2="198" stroke="#3182bb"/>
<line x1="293" y1="184" x2="293" y2="198" stroke="#3081ba"/>
<line x1="294" y1="184" x2="294" y2="198" stroke="#2f81ba"/>
<line x1="295" y1="184" x2="295" y2="198" stroke="#2e80b9"/>
<line x1="296" y1="184" x2="296" y2="198" stroke="#2d80b9"/>
<line x1="297" y1="184" x2="297" y2="198" stroke="#2c7fb9"/>
<line x1="298" y1="184" x2="298" y2="198" stroke="#2b7fb8"/>
<line x1="299" y1="184" x2="299" y2="198" stroke="#2a7eb8"/>
<line x1="300" y1="184" x2="300" y2="198" stroke="#297db8"/>
<line x1="301" y1="184" x2="301" y2="198" stroke="#287db7"/>
<line x1="302" y1="184" x2="302" y2="198" stroke="#287cb7"/>
<line x1="303" y1="184" x2="303" y2="198" stroke="#277cb7"/>
<line x1="304" y1="184" x2="304" y2="198" stroke="#267bb6"/>
<line x1="305" y1="184" x2="305" y2="198" stroke="#257ab6"/>
<line x1="306" y1="184" x2="306" y2="198" stroke="#247ab6"/>
<line x1="307" y1="184" x2="307" y2="198" stroke="#2379b5"/>
<line x1="308" y1="184" x2="308" y2="198" stroke="#2279b5"/>
<line x1="309" y1="184" x2="309" y2="198" stroke="#2178b5"/>
<line x1="310" y1="184" x2="310" y2="198" stroke="#2078b4"/>
<line x1="311" y1="184" x2="311" y2="198" stroke="#1f77b4"/>
<rect x="92" y="184" width="220" height="14" fill="none" stroke="#444"/>
<line x1="92.0" y1="198" x2="92.0" y2="202" stroke="#444"/>
<text x="92.0" y="216.0" text-anchor="middle" font-family="sans-serif" font-size="10">0.809</text>
<line x1="147.0" y1="198" x2="147.0" y2="202" stroke="#444"/>
<text x="147.0" y="216.0" text-anchor="middle" font-family="sans-serif" font-size="10">0.830</text>
<line x1="202.0" y1="198" x2="202.0" y2="202" stroke="#444"/>
<text x="202.0" y="216.0" text-anchor="middle" font-family="sans-serif" font-size="10">0.852</text>
<line x1="257.0" y1="198" x2="257.0" y2="202" stroke="#444"/>
<text x="257.0" y="216.0" text-anchor="middle" font-family="sans-serif" font-size="10">0.873</text>
<line x1="312.0" y1="198" x2="312.0" y2="202" stroke="#444"/>
<text x="312.0" y="216.0" text-anchor="middle" font-family="sans-serif" font-size="10">0.894</text>
<text x="202.0" y="228.0" text-anchor="middle" font-family="sans-serif" font-size="13">window_id</text>
<text x="26" y="108.0" transform="rotate(-90 26 108.0)" text-anchor="middle" font-family="sans-serif" font-size="13">core</text>
</svg>