<svg xmlns="http://www.w3.org/2000/svg" width="1390" height="640">
<rect width="100%" height="100%" fill="white"/>
<text x="695.0" y="28" text-anchor="middle" font-family="sans-serif" font-size="20">Plot 2 - Window Breakdown (Stacked Bar) (QEMU)</text>
<text x="695.0" y="46" text-anchor="middle" font-family="sans-serif" font-size="12">Stacked categories: resident compute, idle, memory-attributed, non-resident (time in us)</text>
<line x1="90" y1="518" x2="1070" y2="518" stroke="#222"/>
<line x1="90" y1="72" x2="90" y2="518" stroke="#222"/>
<line x1="90" y1="518.00" x2="1070" y2="518.00" stroke="#ededed"/>
<line x1="84" y1="518.00" x2="90" y2="518.00" stroke="#222"/>
<text x="80" y="522.00" text-anchor="end" font-family="sans-serif" font-size="11">0.0</text>
<line x1="90" y1="428.80" x2="1070" y2="428.80" stroke="#ededed"/>
<line x1="84" y1="428.80" x2="90" y2="428.80" stroke="#222"/>
<text x="80" y="432.80" text-anchor="end" font-family="sans-serif" font-size="11">51.2</text>
<line x1="90" y1="339.60" x2="1070" y2="339.60" stroke="#ededed"/>
<line x1="84" y1="339.60" x2="90" y2="339.60" stroke="#222"/>
<text x="80" y="343.60" text-anchor="end" font-family="sans-serif" font-size="11">102.4</text>
<line x1="90" y1="250.40" x2="1070" y2="250.40" stroke="#ededed"/>
<line x1="84" y1="250.40" x2="90" y2="250.40" stroke="#222"/>
<text x="80" y="254.40" text-anchor="end" font-family="sans-serif" font-size="11">153.6</text>
<line x1="90" y1="161.20" x2="1070" y2="161.20" stroke="#ededed"/>
<line x1="84" y1="161.20" x2="90" y2="161.20" stroke="#222"/>
<text x="80" y="165.20" text-anchor="end" font-family="sans-serif" font-size="11">204.8</text>
<line x1="90" y1="72.00" x2="1070" y2="72.00" stroke="#ededed"/>
<line x1="84" y1="72.00" x2="90" y2="72.00" stroke="#222"/>
<text x="80" y="76.00" text-anchor="end" font-family="sans-serif" font-size="11">256.0</text>
<line x1="90.60" y1="518" x2="90.60" y2="524" stroke="#222"/>
<text x="90.60" y="542" text-anchor="middle" font-family="sans-serif" font-size="11">0</text>
<line x1="107.40" y1="518" x2="107.40" y2="524" stroke="#222"/>
<text x="107.40" y="542" text-anchor="middle" font-family="sans-serif" font-size="11">14</text>
<line x1="124.20" y1="518" x2="124.20" y2="524" stroke="#222"/>
<text x="124.20" y="542" text-anchor="middle" font-family="sans-serif" font-size="11">28</text>
<line x1="142.20" y1="518" x2="142.20" y2="524" stroke="#222"/>
<text x="142.20" y="542" text-anchor="middle" font-family="sans-serif" font-size="11">43</text>
<line x1="159.00" y1="518" x2="159.00" y2="524" stroke="#222"/>
<text x="159.00" y="542" text-anchor="middle" font-family="sans-serif" font-size="11">57</text>
<line x1="175.80" y1="518" x2="175.80" y2="524" stroke="#222"/>
<text x="175.80" y="542" text-anchor="middle" font-family="sans-serif" font-size="11">71</text>
<line x1="193.80" y1="518" x2="193.80" y2="524" stroke="#222"/>
<text x="193.80" y="542" text-anchor="middle" font-family="sans-serif" font-size="11">86</text>
<line x1="210.60" y1="518" x2="210.60" y2="524" stroke="#222"/>
<text x="210.60" y="542" text-anchor="middle" font-family="sans-serif" font-size="11">100</text>
<line x1="227.40" y1="518" x2="227.40" y2="524" stroke="#222"/>
<text x="227.40" y="542" text-anchor="middle" font-family="sans-serif" font-size="11">114</text>
<rect x="90.08" y="72.00" width="1.03" height="446.00" fill="#f2b701" />
<rect x="91.28" y="72.00" width="1.03" height="446.00" fill="#f2b701" />
<rect x="92.48" y="72.00" width="1.03" height="446.00" fill="#f2b701" />
<rect x="93.68" y="72.00" width="1.03" height="446.00" fill="#f2b701" />
<rect x="94.88" y="72.00" width="1.03" height="446.00" fill="#f2b701" />
<rect x="96.08" y="72.00" width="1.03" height="446.00" fill="#f2b701" />
<rect x="97.28" y="72.00" width="1.03" height="446.00" fill="#f2b701" />
<rect x="98.48" y="72.00" width="1.03" height="446.00" fill="#f2b701" />
<rect x="99.68" y="72.00" width="1.03" height="446.00" fill="#f2b701" />
<rect x="100.88" y="72.00" width="1.03" height="446.00" fill="#f2b701" />
<rect x="102.08" y="72.00" width="1.03" height="446.00" fill="#f2b701" />
<rect x="103.28" y="72.00" width="1.03" height="446.00" fill="#f2b701" />
<rect x="104.48" y="72.00" width="1.03" height="446.00" fill="#f2b701" />
<rect x="105.68" y="72.00" width="1.03" height="446.00" fill="#f2b701" />
<rect x="106.88" y="72.00" width="1.03" height="446.00" fill="#f2b701" />
<rect x="108.08" y="72.00" width="1.03" height="446.00" fill="#f2b701" />
<rect x="109.28" y="72.00" width="1.03" height="446.00" fill="#f2b701" />
<rect x="110.48" y="72.00" width="1.03" height="446.00" fill="#f2b701" />
<rect x="111.68" y="72.00" width="1.03" height="446.00" fill="#f2b701" />
<rect x="112.88" y="72.00" width="1.03" height="446.00" fill="#f2b701" />
<rect x="114.08" y="72.00" width="1.03" height="446.00" fill="#f2b701" />
<rect x="115.28" y="72.00" width="1.03" height="446.00" fill="#f2b701" />
<rect x="116.48" y="72.00" width="1.03" height="446.00" fill="#f2b701" />
<rect x="117.68" y="72.00" width="1.03" height="446.00" fill="#f2b701" />
<rect x="118.88" y="72.00" width="1.03" height="446.00" fill="#f2b701" />
<rect x="120.08" y="242.73" width="1.03" height="275.27" fill="#2ca02c" />
<rect x="120.08" y="89.42" width="1.03" height="153.31" fill="#f2b701" />
<rect x="120.08" y="72.00" width="1.03" height="17.42" fill="#d62728" />
<rect x="121.28" y="96.39" width="1.03" height="421.61" fill="#2ca02c" />
<rect x="121.28" y="72.00" width="1.03" height="24.39" fill="#d62728" />
<rect x="122.48" y="98.13" width="1.03" height="419.87" fill="#2ca02c" />
<rect x="122.48" y="72.00" width="1.03" height="26.13" fill="#d62728" />
<rect x="123.68" y="96.39" width="1.03" height="421.61" fill="#2ca02c" />
<rect x="123.68" y="72.00" width="1.03" height="24.39" fill="#d62728" />
<rect x="124.88" y="96.39" width="1.03" height="421.61" fill="#2ca02c" />
<rect x="124.88" y="72.00" width="1.03" height="24.39" fill="#d62728" />
<rect x="126.08" y="96.39" width="1.03" height="421.61" fill="#2ca02c" />
<rect x="126.08" y="72.00" width="1.03" height="24.39" fill="#d62728" />
<rect x="127.28" y="96.39" width="1.03" height="421.61" fill="#2ca02c" />
<rect x="127.28" y="72.00" width="1.03" height="24.39" fill="#d62728" />
<rect x="128.48" y="98.13" width="1.03" height="419.87" fill="#2ca02c" />
<rect x="128.48" y="72.00" width="1.03" height="26.13" fill="#d62728" />
<rect x="129.68" y="96.39" width="1.03" height="421.61" fill="#2ca02c" />
<rect x="129.68" y="72.00" width="1.03" height="24.39" fill="#d62728" />
<rect x="130.88" y="96.39" width="1.03" height="421.61" fill="#2ca02c" />
<rect x="130.88" y="72.00" width="1.03" height="24.39" fill="#d62728" />
<rect x="132.08" y="96.39" width="1.03" height="421.61" fill="#2ca02c" />
<rect x="132.08" y="72.00" width="1.03" height="24.39" fill="#d62728" />
<rect x="133.28" y="96.39" width="1.03" height="421.61" fill="#2ca02c" />
<rect x="133.28" y="72.00" width="1.03" height="24.39" fill="#d62728" />
<rect x="134.48" y="96.39" width="1.03" height="421.61" fill="#2ca02c" />
<rect x="134.48" y="72.00" width="1.03" height="24.39" fill="#d62728" />
<rect x="135.68" y="98.13" width="1.03" height="419.87" fill="#2ca02c" />
<rect x="135.68" y="72.00" width="1.03" height="26.13" fill="#d62728" />
<rect x="136.88" y="96.39" width="1.03" height="421.61" fill="#2ca02c" />
<rect x="136.88" y="72.00" width="1.03" height="24.39" fill="#d62728" />
<rect x="138.08" y="96.39" width="1.03" height="421.61" fill="#2ca02c" />
<rect x="138.08" y="72.00" width="1.03" height="24.39" fill="#d62728" />
<rect x="139.28" y="96.39" width="1.03" height="421.61" fill="#2ca02c" />
<rect x="139.28" y="72.00" width="1.03" height="24.39" fill="#d62728" />
<rect x="140.48" y="96.39" width="1.03" height="421.61" fill="#2ca02c" />
<rect x="140.48" y="72.00" width="1.03" height="24.39" fill="#d62728" />
<rect x="141.68" y="96.39" width="1.03" height="421.61" fill="#2ca02c" />
<rect x="141.68" y="72.00" width="1.03" height="24.39" fill="#d62728" />
<rect x="142.88" y="84.20" width="1.03" height="433.80" fill="#2ca02c" />
<rect x="142.88" y="72.00" width="1.03" height="12.20" fill="#d62728" />
<rect x="144.08" y="72.00" width="1.03" height="446.00" fill="#2ca02c" />
<rect x="145.28" y="72.00" width="1.03" height="446.00" fill="#2ca02c" />
<rect x="146.48" y="72.00" width="1.03" height="446.00" fill="#2ca02c" />
<rect x="147.68" y="72.00" width="1.03" height="446.00" fill="#2ca02c" />
<rect x="148.88" y="72.00" width="1.03" height="446.00" fill="#2ca02c" />
<rect x="150.08" y="72.00" width="1.03" height="446.00" fill="#2ca02c" />
<rect x="151.28" y="72.00" width="1.03" height="446.00" fill="#2ca02c" />
<rect x="152.48" y="72.00" width="1.03" height="446.00" fill="#2ca02c" />
<rect x="153.68" y="72.00" width="1.03" height="446.00" fill="#2ca02c" />
<rect x="154.88" y="72.00" width="1.03" height="446.00" fill="#2ca02c" />
<rect x="156.08" y="72.00" width="1.03" height="446.00" fill="#2ca02c" />
<rect x="157.28" y="72.00" width="1.03" height="446.00" fill="#2ca02c" />
<rect x="158.48" y="72.00" width="1.03" height="446.00" fill="#2ca02c" />
<rect x="159.68" y="72.00" width="1.03" height="446.00" fill="#2ca02c" />
<rect x="160.88" y="72.00" width="1.03" height="446.00" fill="#2ca02c" />
<rect x="162.08" y="72.00" width="1.03" height="446.00" fill="#2ca02c" />
<rect x="163.28" y="72.00" width="1.03" height="446.00" fill="#2ca02c" />
<rect x="164.48" y="72.00" width="1.03" height="446.00" fill="#2ca02c" />
<rect x="165.68" y="72.00" width="1.03" height="446.00" fill="#2ca02c" />
<rect x="166.88" y="72.00" width="1.03" height="446.00" fill="#2ca02c" />
<rect x="168.08" y="72.00" width="1.03" height="446.00" fill="#2ca02c" />
<rect x="169.28" y="72.00" width="1.03" height="446.00" fill="#2ca02c" />
<rect x="170.48" y="72.00" width="1.03" height="446.00" fill="#2ca02c" />
<rect x="171.68" y="72.00" width="1.03" height="446.00" fill="#2ca02c" />
<rect x="172.88" y="72.00" width="1.03" height="446.00" fill="#2ca02c" />
<rect x="174.08" y="72.00" width="1.03" height="446.00" fill="#2ca02c" />
<rect x="175.28" y="72.00" width="1.03" height="446.00" fill="#2ca02c" />
<rect x="176.48" y="72.00" width="1.03" height="446.00" fill="#2ca02c" />
<rect x="177.68" y="72.00" width="1.03" height="446.00" fill="#2ca02c" />
<rect x="178.88" y="72.00" width="1.03" height="446.00" fill="#2ca02c" />
<rect x="180.08" y="72.00" width="1.03" height="446.00" fill="#2ca02c" />
<rect x="181.28" y="72.00" width="1.03" height="446.00" fill="#2ca02c" />
<rect x="182.48" y="72.00" width="1.03" height="446.00" fill="#2ca02c" />
<rect x="183.68" y="72.00" width="1.03" height="446.00" fill="#2ca02c" />
<rect x="184.88" y="72.00" width="1.03" height="446.00" fill="#2ca02c" />
<rect x="186.08" y="72.00" width="1.03" height="446.00" fill="#2ca02c" />
<rect x="187.28" y="72.00" width="1.03" height="446.00" fill="#2ca02c" />
<rect x="188.48" y="72.00" width="1.03" height="446.00" fill="#2ca02c" />
<rect x="189.68" y="72.00" width="1.03" height="446.00" fill="#2ca02c" />
<rect x="190.88" y="72.00" width="1.03" height="446.00" fill="#2ca02c" />
<rect x="192.08" y="72.00" width="1.03" height="446.00" fill="#2ca02c" />
<rect x="193.28" y="72.00" width="1.03" height="446.00" fill="#2ca02c" />
<rect x="194.48" y="72.00" width="1.03" height="446.00" fill="#2ca02c" />
<rect x="195.68" y="72.00" width="1.03" height="446.00" fill="#2ca02c" />
<rect x="196.88" y="72.00" width="1.03" height="446.00" fill="#2ca02c" />
<rect x="198.08" y="72.00" width="1.03" height="446.00" fill="#2ca02c" />
<rect x="199.28" y="72.00" width="1.03" height="446.00" fill="#2ca02c" />
<rect x="200.48" y="72.00" width="1.03" height="446.00" fill="#2ca02c" />
<rect x="201.68" y="72.00" width="1.03" height="446.00" fill="#2ca02c" />
<rect x="202.88" y="72.00" width="1.03" height="446.00" fill="#2ca02c" />
<rect x="204.08" y="72.00" width="1.03" height="446.00" fill="#2ca02c" />
<rect x="205.28" y="72.00" width="1.03" height="446.00" fill="#2ca02c" />
<rect x="206.48" y="72.00" width="1.03" height="446.00" fill="#2ca02c" />
<rect x="207.68" y="72.00" width="1.03" height="446.00" fill="#2ca02c" />
<rect x="208.88" y="72.00" width="1.03" height="446.00" fill="#2ca02c" />
<rect x="210.08" y="72.00" width="1.03" height="446.00" fill="#2ca02c" />
<rect x="211.28" y="72.00" width="1.03" height="446.00" fill="#2ca02c" />
<rect x="212.48" y="72.00" width="1.03" height="446.00" fill="#2ca02c" />
<rect x="213.68" y="72.00" width="1.03" height="446.00" fill="#2ca02c" />
<rect x="214.88" y="72.00" width="1.03" height="446.00" fill="#2ca02c" />
<rect x="216.08" y="72.00" width="1.03" height="446.00" fill="#2ca02c" />
<rect x="217.28" y="72.00" width="1.03" height="446.00" fill="#2ca02c" />
<rect x="218.48" y="72.00" width="1.03" height="446.00" fill="#2ca02c" />
<rect x="219.68" y="268.87" width="1.03" height="249.13" fill="#2ca02c" />
<rect x="219.68" y="72.00" width="1.03" height="196.87" fill="#f2b701" />
<rect x="220.88" y="72.00" width="1.03" height="446.00" fill="#f2b701" />
<rect x="222.08" y="476.19" width="1.03" height="41.81" fill="#f2b701" />
<rect x="222.08" y="72.00" width="1.03" height="404.19" fill="#d62728" />
<rect x="223.28" y="72.00" width="1.03" height="446.00" fill="#d62728" />
<rect x="224.48" y="72.00" width="1.03" height="446.00" fill="#d62728" />
<rect x="225.68" y="72.00" width="1.03" height="446.00" fill="#d62728" />
<rect x="226.88" y="124.27" width="1.03" height="393.73" fill="#f2b701" />
<rect x="226.88" y="72.00" width="1.03" height="52.27" fill="#d62728" />
<rect x="1096" y="98" width="18" height="12" fill="#2ca02c" />
<text x="1122" y="108" font-family="sans-serif" font-size="12">resident compute</text>
<rect x="1096" y="122" width="18" height="12" fill="#f2b701" />
<text x="1122" y="132" font-family="sans-serif" font-size="12">idle</text>
<rect x="1096" y="146" width="18" height="12" fill="#d62728" />
<text x="1122" y="156" font-family="sans-serif" font-size="12">memory-attributed</text>
<rect x="1096" y="170" width="18" height="12" fill="#7f7f7f" />
<text x="1122" y="180" font-family="sans-serif" font-size="12">non-resident</text>
<text x="1096" y="228" font-family="sans-serif" font-size="11" fill="#444">Trace note: non-resident component is zero across windows for this residency mode.</text>
<text x="580.0" y="606" text-anchor="middle" font-family="sans-serif" font-size="13">Window index</text>
<text x="24" y="295.0" transform="rotate(-90 24 295.0)" text-anchor="middle" font-family="sans-serif" font-size="13">Time (us)</text>
</svg>