<svg xmlns="http://www.w3.org/2000/svg" width="920" height="520">
<rect width="100%" height="100%" fill="white"/>
<text x="460.0" y="24" text-anchor="middle" font-family="sans-serif" font-size="18">SIT Median</text>
<line x1="80" y1="450" x2="700" y2="450" stroke="#222"/>
<line x1="80" y1="40" x2="80" y2="450" stroke="#222"/>
<line x1="80.0" y1="40" x2="80.0" y2="450" stroke="#eee"/>
<line x1="80.0" y1="450" x2="80.0" y2="455" stroke="#222"/>
<text x="80.0" y="472" text-anchor="middle" font-family="sans-serif" font-size="11">256.00</text>
<line x1="235.0" y1="40" x2="235.0" y2="450" stroke="#eee"/>
<line x1="235.0" y1="450" x2="235.0" y2="455" stroke="#222"/>
<text x="235.0" y="472" text-anchor="middle" font-family="sans-serif" font-size="11">256.25</text>
<line x1="390.0" y1="40" x2="390.0" y2="450" stroke="#eee"/>
<line x1="390.0" y1="450" x2="390.0" y2="455" stroke="#222"/>
<text x="390.0" y="472" text-anchor="middle" font-family="sans-serif" font-size="11">256.50</text>
<line x1="545.0" y1="40" x2="545.0" y2="450" stroke="#eee"/>
<line x1="545.0" y1="450" x2="545.0" y2="455" stroke="#222"/>
<text x="545.0" y="472" text-anchor="middle" font-family="sans-serif" font-size="11">256.75</text>
<line x1="700.0" y1="40" x2="700.0" y2="450" stroke="#eee"/>
<line x1="700.0" y1="450" x2="700.0" y2="455" stroke="#222"/>
<text x="700.0" y="472" text-anchor="middle" font-family="sans-serif" font-size="11">257.00</text>
<line x1="80" y1="450.0" x2="700" y2="450.0" stroke="#eee"/>
<line x1="75" y1="450.0" x2="80" y2="450.0" stroke="#222"/>
<text x="72" y="454.0" text-anchor="end" font-family="sans-serif" font-size="11">0.010</text>
<line x1="80" y1="347.5" x2="700" y2="347.5" stroke="#eee"/>
<line x1="75" y1="347.5" x2="80" y2="347.5" stroke="#222"/>
<text x="72" y="351.5" text-anchor="end" font-family="sans-serif" font-size="11">0.103</text>
<line x1="80" y1="245.0" x2="700" y2="245.0" stroke="#eee"/>
<line x1="75" y1="245.0" x2="80" y2="245.0" stroke="#222"/>
<text x="72" y="249.0" text-anchor="end" font-family="sans-serif" font-size="11">0.196</text>
<line x1="80" y1="142.5" x2="700" y2="142.5" stroke="#eee"/>
<line x1="75" y1="142.5" x2="80" y2="142.5" stroke="#222"/>
<text x="72" y="146.5" text-anchor="end" font-family="sans-serif" font-size="11">0.289</text>
<line x1="80" y1="40.0" x2="700" y2="40.0" stroke="#eee"/>
<line x1="75" y1="40.0" x2="80" y2="40.0" stroke="#222"/>
<text x="72" y="44.0" text-anchor="end" font-family="sans-serif" font-size="11">0.382</text>
<polyline fill="none" stroke="#1f77b4" stroke-width="2.2" points="80.0,148.1 80.0,413.9 80.0,367.7 80.0,450.0"/>
<circle cx="80.0" cy="148.1" r="3.5" fill="#1f77b4"/>
<circle cx="80.0" cy="413.9" r="3.5" fill="#1f77b4"/>
<circle cx="80.0" cy="367.7" r="3.5" fill="#1f77b4"/>
<circle cx="80.0" cy="450.0" r="3.5" fill="#1f77b4"/>
<line x1="720" y1="60" x2="744" y2="60" stroke="#1f77b4" stroke-width="3"/>
<text x="750" y="64" font-family="sans-serif" font-size="12">fm_loopback</text>
<polyline fill="none" stroke="#ff7f0e" stroke-width="2.2" points="80.0,95.9 80.0,134.1 80.0,115.7 80.0,250.2"/>
<circle cx="80.0" cy="95.9" r="3.5" fill="#ff7f0e"/>
<circle cx="80.0" cy="134.1" r="3.5" fill="#ff7f0e"/>
<circle cx="80.0" cy="115.7" r="3.5" fill="#ff7f0e"/>
<circle cx="80.0" cy="250.2" r="3.5" fill="#ff7f0e"/>
<line x1="720" y1="82" x2="744" y2="82" stroke="#ff7f0e" stroke-width="3"/>
<text x="750" y="86" font-family="sans-serif" font-size="12">fm_mm</text>
<polyline fill="none" stroke="#2ca02c" stroke-width="2.2" points="80.0,40.0 80.0,135.5 80.0,75.8 80.0,253.8"/>
<circle cx="80.0" cy="40.0" r="3.5" fill="#2ca02c"/>
<circle cx="80.0" cy="135.5" r="3.5" fill="#2ca02c"/>
<circle cx="80.0" cy="75.8" r="3.5" fill="#2ca02c"/>
<circle cx="80.0" cy="253.8" r="3.5" fill="#2ca02c"/>
<line x1="720" y1="104" x2="744" y2="104" stroke="#2ca02c" stroke-width="3"/>
<text x="750" y="108" font-family="sans-serif" font-size="12">fm_sparse</text>
<polyline fill="none" stroke="#d62728" stroke-width="2.2" points="80.0,112.4 80.0,310.5 80.0,253.3 80.0,429.3"/>
<circle cx="80.0" cy="112.4" r="3.5" fill="#d62728"/>
<circle cx="80.0" cy="310.5" r="3.5" fill="#d62728"/>
<circle cx="80.0" cy="253.3" r="3.5" fill="#d62728"/>
<circle cx="80.0" cy="429.3" r="3.5" fill="#d62728"/>
<line x1="720" y1="126" x2="744" y2="126" stroke="#d62728" stroke-width="3"/>
<text x="750" y="130" font-family="sans-serif" font-size="12">fm_read</text>
<polyline fill="none" stroke="#9467bd" stroke-width="2.2" points="80.0,134.2 80.0,323.1 80.0,269.8 80.0,432.4"/>
<circle cx="80.0" cy="134.2" r="3.5" fill="#9467bd"/>
<circle cx="80.0" cy="323.1" r="3.5" fill="#9467bd"/>
<circle cx="80.0" cy="269.8" r="3.5" fill="#9467bd"/>
<circle cx="80.0" cy="432.4" r="3.5" fill="#9467bd"/>
<line x1="720" y1="148" x2="744" y2="148" stroke="#9467bd" stroke-width="3"/>
<text x="750" y="152" font-family="sans-serif" font-size="12">fm_write</text>
<text x="390.0" y="496" text-anchor="middle" font-family="sans-serif" font-size="13">time_us</text>
<text x="24" y="245.0" transform="rotate(-90 24 245.0)" text-anchor="middle" font-family="sans-serif" font-size="13">sit_median</text>
</svg>