<svg xmlns="http://www.w3.org/2000/svg" width="472" height="252">
<rect width="100%" height="100%" fill="white"/>
<text x="236.0" y="28" text-anchor="middle" font-family="sans-serif" font-size="20">Stall Fraction Heatmap</text>
<text x="236.0" y="48" text-anchor="middle" font-family="sans-serif" font-size="12">tt_custom_sfpi_add | Tenstorrent</text>
<text x="236.0" y="64" text-anchor="middle" font-family="sans-serif" font-size="11">Fraction of resident window classified as stall</text>
<rect x="92" y="84" width="220" height="48" fill="white" stroke="#222"/>
<text x="82" y="96.0" text-anchor="end" font-family="sans-serif" font-size="11">core 0</text>
<line x1="108" y1="84" x2="108" y2="132" stroke="#f7f7f7"/>
<text x="100.0" y="150.0" text-anchor="middle" font-family="sans-serif" font-size="10" transform="rotate(25 100.0 150.0)">0</text>
<line x1="124" y1="84" x2="124" y2="132" stroke="#f7f7f7"/>
<text x="116.0" y="150.0" text-anchor="middle" font-family="sans-serif" font-size="10" transform="rotate(25 116.0 150.0)">1</text>
<line x1="140" y1="84" x2="140" y2="132" stroke="#f7f7f7"/>
<text x="132.0" y="150.0" text-anchor="middle" font-family="sans-serif" font-size="10" transform="rotate(25 132.0 150.0)">2</text>
<line x1="156" y1="84" x2="156" y2="132" stroke="#f7f7f7"/>
<text x="148.0" y="150.0" text-anchor="middle" font-family="sans-serif" font-size="10" transform="rotate(25 148.0 150.0)">3</text>
<line x1="172" y1="84" x2="172" y2="132" stroke="#f7f7f7"/>
<text x="164.0" y="150.0" text-anchor="middle" font-family="sans-serif" font-size="10" transform="rotate(25 164.0 150.0)">4</text>
<text x="180.0" y="150.0" text-anchor="middle" font-family="sans-serif" font-size="10" transform="rotate(25 180.0 150.0)">5</text>
<rect x="92" y="84" width="16" height="16" fill="#fce4e4"/>
<rect x="108" y="84" width="16" height="16" fill="#fbe1e2"/>
<rect x="124" y="84" width="16" height="16" fill="#fbe1e1"/>
<rect x="140" y="84" width="16" height="16" fill="#fbe2e2"/>
<rect x="156" y="84" width="16" height="16" fill="#fbe3e3"/>
<rect x="172" y="84" width="16" height="16" fill="#fce5e5"/>
<line x1="92" y1="184" x2="92" y2="198" stroke="#fff5f5"/>
<line x1="93" y1="184" x2="93" y2="198" stroke="#fff4f4"/>
<line x1="94" y1="184" x2="94" y2="198" stroke="#fff3f3"/>
<line x1="95" y1="184" x2="95" y2="198" stroke="#fef2f2"/>
<line x1="96" y1="184" x2="96" y2="198" stroke="#fef1f1"/>
<line x1="97" y1="184" x2="97" y2="198" stroke="#fef0f0"/>
<line x1="98" y1="184" x2="98" y2="198" stroke="#feefef"/>
<line x1="99" y1="184" x2="99" y2="198" stroke="#feeeee"/>
<line x1="100" y1="184" x2="100" y2="198" stroke="#feedee"/>
<line x1="101" y1="184" x2="101" y2="198" stroke="#fdeded"/>
<line x1="102" y1="184" x2="102" y2="198" stroke="#fdecec"/>
<line x1="103" y1="184" x2="103" y2="198" stroke="#fdebeb"/>
<line x1="104" y1="184" x2="104" y2="198" stroke="#fdeaea"/>
<line x1="105" y1="184" x2="105" y2="198" stroke="#fde9e9"/>
<line x1="106" y1="184" x2="106" y2="198" stroke="#fce8e8"/>
<line x1="107" y1="184" x2="107" y2="198" stroke="#fce7e7"/>
<line x1="108" y1="184" x2="108" y2="198" stroke="#fce6e6"/>
<line x1="109" y1="184" x2="109" y2="198" stroke="#fce5e5"/>
<line x1="110" y1="184" x2="110" y2="198" stroke="#fce4e4"/>
<line x1="111" y1="184" x2="111" y2="198" stroke="#fbe3e3"/>
<line x1="112" y1="184" x2="112" y2="198" stroke="#fbe2e2"/>
<line x1="113" y1="184" x2="113" y2="198" stroke="#fbe1e1"/>
<line x1="114" y1="184" x2="114" y2="198" stroke="#fbe0e0"/>
<line x1="115" y1="184" x2="115" y2="198" stroke="#fbdfdf"/>
<line x1="116" y1="184" x2="116" y2="198" stroke="#fbdedf"/>
<line x1="117" y1="184" x2="117" y2="198" stroke="#faddde"/>
<line x1="118" y1="184" x2="118" y2="198" stroke="#fadddd"/>
<line x1="119" y1="184" x2="119" y2="198" stroke="#fadcdc"/>
<line x1="120" y1="184" x2="120" y2="198" stroke="#fadbdb"/>
<line x1="121" y1="184" x2="121" y2="198" stroke="#fadada"/>
<line x1="122" y1="184" x2="122" y2="198" stroke="#f9d9d9"/>
<line x1="123" y1="184" x2="123" y2="198" stroke="#f9d8d8"/>
<line x1="124" y1="184" x2="124" y2="198" stroke="#f9d7d7"/>
<line x1="125" y1="184" x2="125" y2="198" stroke="#f9d6d6"/>
<line x1="126" y1="184" x2="126" y2="198" stroke="#f9d5d5"/>
<line x1="127" y1="184" x2="127" y2="198" stroke="#f8d4d4"/>
<line x1="128" y1="184" x2="128" y2="198" stroke="#f8d3d3"/>
<line x1="129" y1="184" x2="129" y2="198" stroke="#f8d2d2"/>
<line x1="130" y1="184" x2="130" y2="198" stroke="#f8d1d1"/>
<line x1="131" y1="184" x2="131" y2="198" stroke="#f8d0d0"/>
<line x1="132" y1="184" x2="132" y2="198" stroke="#f8cfd0"/>
<line x1="133" y1="184" x2="133" y2="198" stroke="#f7cecf"/>
<line x1="134" y1="184" x2="134" y2="198" stroke="#f7cdce"/>
<line x1="135" y1="184" x2="135" y2="198" stroke="#f7cdcd"/>
<line x1="136" y1="184" x2="136" y2="198" stroke="#f7cccc"/>
<line x1="137" y1="184" x2="137" y2="198" stroke="#f7cbcb"/>
<line x1="138" y1="184" x2="138" y2="198" stroke="#f6caca"/>
<line x1="139" y1="184" x2="139" y2="198" stroke="#f6c9c9"/>
<line x1="140" y1="184" x2="140" y2="198" stroke="#f6c8c8"/>
<line x1="141" y1="184" x2="141" y2="198" stroke="#f6c7c7"/>
<line x1="142" y1="184" x2="142" y2="198" stroke="#f6c6c6"/>
<line x1="143" y1="184" x2="143" y2="198" stroke="#f5c5c5"/>
<line x1="144" y1="184" x2="144" y2="198" stroke="#f5c4c4"/>
<line x1="145" y1="184" x2="145" y2="198" stroke="#f5c3c3"/>
<line x1="146" y1="184" x2="146" y2="198" stroke="#f5c2c2"/>
<line x1="147" y1="184" x2="147" y2="198" stroke="#f5c1c2"/>
<line x1="148" y1="184" x2="148" y2="198" stroke="#f5c0c1"/>
<line x1="149" y1="184" x2="149" y2="198" stroke="#f4bfc0"/>
<line x1="150" y1="184" x2="150" y2="198" stroke="#f4bebf"/>
<line x1="151" y1="184" x2="151" y2="198" stroke="#f4bebe"/>
<line x1="152" y1="184" x2="152" y2="198" stroke="#f4bdbd"/>
<line x1="153" y1="184" x2="153" y2="198" stroke="#f4bcbc"/>
<line x1="154" y1="184" x2="154" y2="198" stroke="#f3bbbb"/>
<line x1="155" y1="184" x2="155" y2="198" stroke="#f3baba"/>
<line x1="156" y1="184" x2="156" y2="198" stroke="#f3b9b9"/>
<line x1="157" y1="184" x2="157" y2="198" stroke="#f3b8b8"/>
<line x1="158" y1="184" x2="158" y2="198" stroke="#f3b7b7"/>
<line x1="159" y1="184" x2="159" y2="198" stroke="#f2b6b6"/>
<line x1="160" y1="184" x2="160" y2="198" stroke="#f2b5b5"/>
<line x1="161" y1="184" x2="161" y2="198" stroke="#f2b4b4"/>
<line x1="162" y1="184" x2="162" y2="198" stroke="#f2b3b3"/>
<line x1="163" y1="184" x2="163" y2="198" stroke="#f2b2b3"/>
<line x1="164" y1="184" x2="164" y2="198" stroke="#f2b1b2"/>
<line x1="165" y1="184" x2="165" y2="198" stroke="#f1b0b1"/>
<line x1="166" y1="184" x2="166" y2="198" stroke="#f1afb0"/>
<line x1="167" y1="184" x2="167" y2="198" stroke="#f1aeaf"/>
<line x1="168" y1="184" x2="168" y2="198" stroke="#f1aeae"/>
<line x1="169" y1="184" x2="169" y2="198" stroke="#f1adad"/>
<line x1="170" y1="184" x2="170" y2="198" stroke="#f0acac"/>
<line x1="171" y1="184" x2="171" y2="198" stroke="#f0abab"/>
<line x1="172" y1="184" x2="172" y2="198" stroke="#f0aaaa"/>
<line x1="173" y1="184" x2="173" y2="198" stroke="#f0a9a9"/>
<line x1="174" y1="184" x2="174" y2="198" stroke="#f0a8a8"/>
<line x1="175" y1="184" x2="175" y2="198" stroke="#efa7a7"/>
<line x1="176" y1="184" x2="176" y2="198" stroke="#efa6a6"/>
<line x1="177" y1="184" x2="177" y2="198" stroke="#efa5a5"/>
<line x1="178" y1="184" x2="178" y2="198" stroke="#efa4a4"/>
<line x1="179" y1="184" x2="179" y2="198" stroke="#efa3a4"/>
<line x1="180" y1="184" x2="180" y2="198" stroke="#efa2a3"/>
<line x1="181" y1="184" x2="181" y2="198" stroke="#eea1a2"/>
<line x1="182" y1="184" x2="182" y2="198" stroke="#eea0a1"/>
<line x1="183" y1="184" x2="183" y2="198" stroke="#ee9fa0"/>
<line x1="184" y1="184" x2="184" y2="198" stroke="#ee9e9f"/>
<line x1="185" y1="184" x2="185" y2="198" stroke="#ee9e9e"/>
<line x1="186" y1="184" x2="186" y2="198" stroke="#ed9d9d"/>
<line x1="187" y1="184" x2="187" y2="198" stroke="#ed9c9c"/>
<line x1="188" y1="184" x2="188" y2="198" stroke="#ed9b9b"/>
<line x1="189" y1="184" x2="189" y2="198" stroke="#ed9a9a"/>
<line x1="190" y1="184" x2="190" y2="198" stroke="#ed9999"/>
<line x1="191" y1="184" x2="191" y2="198" stroke="#ec9898"/>
<line x1="192" y1="184" x2="192" y2="198" stroke="#ec9797"/>
<line x1="193" y1="184" x2="193" y2="198" stroke="#ec9696"/>
<line x1="194" y1="184" x2="194" y2="198" stroke="#ec9596"/>
<line x1="195" y1="184" x2="195" y2="198" stroke="#ec9495"/>
<line x1="196" y1="184" x2="196" y2="198" stroke="#ec9394"/>
<line x1="197" y1="184" x2="197" y2="198" stroke="#eb9293"/>
<line x1="198" y1="184" x2="198" y2="198" stroke="#eb9192"/>
<line x1="199" y1="184" x2="199" y2="198" stroke="#eb9091"/>
<line x1="200" y1="184" x2="200" y2="198" stroke="#eb8f90"/>
<line x1="201" y1="184" x2="201" y2="198" stroke="#eb8e8f"/>
<line x1="202" y1="184" x2="202" y2="198" stroke="#ea8e8e"/>
<line x1="203" y1="184" x2="203" y2="198" stroke="#ea8d8d"/>
<line x1="204" y1="184" x2="204" y2="198" stroke="#ea8c8c"/>
<line x1="205" y1="184" x2="205" y2="198" stroke="#ea8b8b"/>
<line x1="206" y1="184" x2="206" y2="198" stroke="#ea8a8a"/>
<line x1="207" y1="184" x2="207" y2="198" stroke="#e98989"/>
<line x1="208" y1="184" x2="208" y2="198" stroke="#e98888"/>
<line x1="209" y1="184" x2="209" y2="198" stroke="#e98787"/>
<line x1="210" y1="184" x2="210" y2="198" stroke="#e98687"/>
<line x1="211" y1="184" x2="211" y2="198" stroke="#e98586"/>
<line x1="212" y1="184" x2="212" y2="198" stroke="#e98485"/>
<line x1="213" y1="184" x2="213" y2="198" stroke="#e88384"/>
<line x1="214" y1="184" x2="214" y2="198" stroke="#e88283"/>
<line x1="215" y1="184" x2="215" y2="198" stroke="#e88182"/>
<line x1="216" y1="184" x2="216" y2="198" stroke="#e88081"/>
<line x1="217" y1="184" x2="217" y2="198" stroke="#e87f80"/>
<line x1="218" y1="184" x2="218" y2="198" stroke="#e77e7f"/>
<line x1="219" y1="184" x2="219" y2="198" stroke="#e77e7e"/>
<line x1="220" y1="184" x2="220" y2="198" stroke="#e77d7d"/>
<line x1="221" y1="184" x2="221" y2="198" stroke="#e77c7c"/>
<line x1="222" y1="184" x2="222" y2="198" stroke="#e77b7b"/>
<line x1="223" y1="184" x2="223" y2="198" stroke="#e67a7a"/>
<line x1="224" y1="184" x2="224" y2="198" stroke="#e67979"/>
<line x1="225" y1="184" x2="225" y2="198" stroke="#e67879"/>
<line x1="226" y1="184" x2="226" y2="198" stroke="#e67778"/>
<line x1="227" y1="184" x2="227" y2="198" stroke="#e67677"/>
<line x1="228" y1="184" x2="228" y2="198" stroke="#e67576"/>
<line x1="229" y1="184" x2="229" y2="198" stroke="#e57475"/>
<line x1="230" y1="184" x2="230" y2="198" stroke="#e57374"/>
<line x1="231" y1="184" x2="231" y2="198" stroke="#e57273"/>
<line x1="232" y1="184" x2="232" y2="198" stroke="#e57172"/>
<line x1="233" y1="184" x2="233" y2="198" stroke="#e57071"/>
<line x1="234" y1="184" x2="234" y2="198" stroke="#e46f70"/>
<line x1="235" y1="184" x2="235" y2="198" stroke="#e46e6f"/>
<line x1="236" y1="184" x2="236" y2="198" stroke="#e46e6e"/>
<line x1="237" y1="184" x2="237" y2="198" stroke="#e46d6d"/>
<line x1="238" y1="184" x2="238" y2="198" stroke="#e46c6c"/>
<line x1="239" y1="184" x2="239" y2="198" stroke="#e36b6b"/>
<line x1="240" y1="184" x2="240" y2="198" stroke="#e36a6a"/>
<line x1="241" y1="184" x2="241" y2="198" stroke="#e3696a"/>
<line x1="242" y1="184" x2="242" y2="198" stroke="#e36869"/>
<line x1="243" y1="184" x2="243" y2="198" stroke="#e36768"/>
<line x1="244" y1="184" x2="244" y2="198" stroke="#e36667"/>
<line x1="245" y1="184" x2="245" y2="198" stroke="#e26566"/>
<line x1="246" y1="184" x2="246" y2="198" stroke="#e26465"/>
<line x1="247" y1="184" x2="247" y2="198" stroke="#e26364"/>
<line x1="248" y1="184" x2="248" y2="198" stroke="#e26263"/>
<line x1="249" y1="184" x2="249" y2="198" stroke="#e26162"/>
<line x1="250" y1="184" x2="250" y2="198" stroke="#e16061"/>
<line x1="251" y1="184" x2="251" y2="198" stroke="#e15f60"/>
<line x1="252" y1="184" x2="252" y2="198" stroke="#e15e5f"/>
<line x1="253" y1="184" x2="253" y2="198" stroke="#e15e5e"/>
<line x1="254" y1="184" x2="254" y2="198" stroke="#e15d5d"/>
<line x1="255" y1="184" x2="255" y2="198" stroke="#e05c5c"/>
<line x1="256" y1="184" x2="256" y2="198" stroke="#e05b5b"/>
<line x1="257" y1="184" x2="257" y2="198" stroke="#e05a5b"/>
<line x1="258" y1="184" x2="258" y2="198" stroke="#e0595a"/>
<line x1="259" y1="184" x2="259" y2="198" stroke="#e05859"/>
<line x1="260" y1="184" x2="260" y2="198" stroke="#e05758"/>
<line x1="261" y1="184" x2="261" y2="198" stroke="#df5657"/>
<line x1="262" y1="184" x2="262" y2="198" stroke="#df5556"/>
<line x1="263" y1="184" x2="263" y2="198" stroke="#df5455"/>
<line x1="264" y1="184" x2="264" y2="198" stroke="#df5354"/>
<line x1="265" y1="184" x2="265" y2="198" stroke="#df5253"/>
<line x1="266" y1="184" x2="266" y2="198" stroke="#de5152"/>
<line x1="267" y1="184" x2="267" y2="198" stroke="#de5051"/>
<line x1="268" y1="184" x2="268" y2="198" stroke="#de4f50"/>
<line x1="269" y1="184" x2="269" y2="198" stroke="#de4f4f"/>
<line x1="270" y1="184" x2="270" y2="198" stroke="#de4e4e"/>
<line x1="271" y1="184" x2="271" y2="198" stroke="#dd4d4d"/>
<line x1="272" y1="184" x2="272" y2="198" stroke="#dd4c4d"/>
<line x1="273" y1="184" x2="273" y2="198" stroke="#dd4b4c"/>
<line x1="274" y1="184" x2="274" y2="198" stroke="#dd4a4b"/>
<line x1="275" y1="184" x2="275" y2="198" stroke="#dd494a"/>
<line x1="276" y1="184" x2="276" y2="198" stroke="#dd4849"/>
<line x1="277" y1="184" x2="277" y2="198" stroke="#dc4748"/>
<line x1="278" y1="184" x2="278" y2="198" stroke="#dc4647"/>
<line x1="279" y1="184" x2="279" y2="198" stroke="#dc4546"/>
<line x1="280" y1="184" x2="280" y2="198" stroke="#dc4445"/>
<line x1="281" y1="184" x2="281" y2="198" stroke="#dc4344"/>
<line x1="282" y1="184" x2="282" y2="198" stroke="#db4243"/>
<line x1="283" y1="184" x2="283" y2="198" stroke="#db4142"/>
<line x1="284" y1="184" x2="284" y2="198" stroke="#db4041"/>
<line x1="285" y1="184" x2="285" y2="198" stroke="#db3f40"/>
<line x1="286" y1="184" x2="286" y2="198" stroke="#db3f3f"/>
<line x1="287" y1="184" x2="287" y2="198" stroke="#da3e3e"/>
<line x1="288" y1="184" x2="288" y2="198" stroke="#da3d3e"/>
<line x1="289" y1="184" x2="289" y2="198" stroke="#da3c3d"/>
<line x1="290" y1="184" x2="290" y2="198" stroke="#da3b3c"/>
<line x1="291" y1="184" x2="291" y2="198" stroke="#da3a3b"/>
<line x1="292" y1="184" x2="292" y2="198" stroke="#da393a"/>
<line x1="293" y1="184" x2="293" y2="198" stroke="#d93839"/>
<line x1="294" y1="184" x2="294" y2="198" stroke="#d93738"/>
<line x1="295" y1="184" x2="295" y2="198" stroke="#d93637"/>
<line x1="296" y1="184" x2="296" y2="198" stroke="#d93536"/>
<line x1="297" y1="184" x2="297" y2="198" stroke="#d93435"/>
<line x1="298" y1="184" x2="298" y2="198" stroke="#d83334"/>
<line x1="299" y1="184" x2="299" y2="198" stroke="#d83233"/>
<line x1="300" y1="184" x2="300" y2="198" stroke="#d83132"/>
<line x1="301" y1="184" x2="301" y2="198" stroke="#d83031"/>
<line x1="302" y1="184" x2="302" y2="198" stroke="#d82f30"/>
<line x1="303" y1="184" x2="303" y2="198" stroke="#d72f2f"/>
<line x1="304" y1="184" x2="304" y2="198" stroke="#d72e2f"/>
<line x1="305" y1="184" x2="305" y2="198" stroke="#d72d2e"/>
<line x1="306" y1="184" x2="306" y2="198" stroke="#d72c2d"/>
<line x1="307" y1="184" x2="307" y2="198" stroke="#d72b2c"/>
<line x1="308" y1="184" x2="308" y2="198" stroke="#d72a2b"/>
<line x1="309" y1="184" x2="309" y2="198" stroke="#d6292a"/>
<line x1="310" y1="184" x2="310" y2="198" stroke="#d62829"/>
<line x1="311" y1="184" x2="311" y2="198" stroke="#d62728"/>
<rect x="92" y="184" width="220" height="14" fill="none" stroke="#444"/>
<line x1="92.0" y1="198" x2="92.0" y2="202" stroke="#444"/>
<text x="92.0" y="216.0" text-anchor="middle" font-family="sans-serif" font-size="10">0.00</text>
<line x1="147.0" y1="198" x2="147.0" y2="202" stroke="#444"/>
<text x="147.0" y="216.0" text-anchor="middle" font-family="sans-serif" font-size="10">0.25</text>
<line x1="202.0" y1="198" x2="202.0" y2="202" stroke="#444"/>
<text x="202.0" y="216.0" text-anchor="middle" font-family="sans-serif" font-size="10">0.50</text>
<line x1="257.0" y1="198" x2="257.0" y2="202" stroke="#444"/>
<text x="257.0" y="216.0" text-anchor="middle" font-family="sans-serif" font-size="10">0.75</text>
<line x1="312.0" y1="198" x2="312.0" y2="202" stroke="#444"/>
<text x="312.0" y="216.0" text-anchor="middle" font-family="sans-serif" font-size="10">1.00</text>
<text x="202.0" y="228.0" text-anchor="middle" font-family="sans-serif" font-size="13">window_id</text>
<text x="26" y="108.0" transform="rotate(-90 26 108.0)" text-anchor="middle" font-family="sans-serif" font-size="13">core</text>
</svg>